<?xml version="1.0" standalone="no"?><!DOCTYPE svg PUBLIC "-//W3C//DTD SVG 1.1//EN" "http://www.w3.org/Graphics/SVG/1.1/DTD/svg11.dtd"><svg class="icon" width="28px" height="28.00px" viewBox="0 0 1024 1024" version="1.1" xmlns="http://www.w3.org/2000/svg"><path d="M512 0C229.232 0 0 229.23 0 512s229.23 512 512 512 512-229.23 512-512S794.77 0 512 0z m0 993.808C245.906 993.808 30.192 778.094 30.192 512S245.906 30.192 512 30.192c266.098 0 481.808 215.712 481.808 481.808 0 266.094-215.71 481.808-481.808 481.808z"  /><path d="M779.778 296h-5.554c-12.272 0-22.222 10.746-22.222 24v1.154H246.846c-11.512 0-20.846 7.164-20.846 16s9.334 16 20.846 16h116.586a14.41 14.41 0 0 0-0.432 3.516v95.814c0 0.226 0.018 0.448 0.028 0.67h-116.182c-11.512 0-20.846 7.164-20.846 16s9.334 16 20.846 16H752V742c0 13.254 9.952 24 22.222 24h5.554c12.272 0 22.222-10.746 22.222-24V320c0.002-13.254-9.95-24-22.22-24z m-397.21 57.154h167.592c-0.1 0.826-0.16 1.672-0.16 2.54v90.612c0 2.474 0.42 4.802 1.156 6.848h-168.184c0.01-0.222 0.028-0.444 0.028-0.67v-95.814c0-1.224-0.154-2.402-0.432-3.516z m186.276 100a20.3 20.3 0 0 0 1.156-6.848v-90.612c0-0.868-0.06-1.714-0.16-2.54H752v100h-183.156z"  /></svg>
