<?xml version="1.0" standalone="no"?><!DOCTYPE svg PUBLIC "-//W3C//DTD SVG 1.1//EN" "http://www.w3.org/Graphics/SVG/1.1/DTD/svg11.dtd"><svg class="icon" width="28px" height="24.51px" viewBox="0 0 1170 1024" version="1.1" xmlns="http://www.w3.org/2000/svg"><path  d="M943.542857 1009.371429H226.742857c-73.142857 0-138.971429-36.571429-175.542857-102.4-36.571429-65.828571-36.571429-146.285714 7.314286-204.8l358.4-585.142858C446.171429 51.2 512 14.628571 585.142857 14.628571s138.971429 36.571429 175.542857 95.085715l358.4 585.142857c36.571429 65.828571 43.885714 138.971429 7.314286 204.8-43.885714 73.142857-109.714286 109.714286-182.857143 109.714286z m-438.857143-841.142858l-358.4 585.142858c-14.628571 29.257143-21.942857 65.828571 0 95.085714 14.628571 29.257143 51.2 51.2 80.457143 51.2h716.8c36.571429 0 65.828571-14.628571 80.457143-51.2 14.628571-29.257143 14.628571-65.828571 0-95.085714l-358.4-585.142858c-36.571429-58.514286-124.342857-58.514286-160.914286 0z"  /><path  d="M585.142857 650.971429c-29.257143 0-58.514286-21.942857-58.514286-58.514286V351.085714c0-36.571429 29.257143-58.514286 58.514286-58.514285s58.514286 21.942857 58.514286 58.514285v248.685715c0 21.942857-29.257143 51.2-58.514286 51.2zM585.142857 804.571429c-29.257143 0-58.514286-21.942857-58.514286-58.514286s29.257143-58.514286 58.514286-58.514286 58.514286 21.942857 58.514286 51.2c0 36.571429-29.257143 65.828571-58.514286 65.828572z"  /></svg>
