<?xml version="1.0" standalone="no"?><!DOCTYPE svg PUBLIC "-//W3C//DTD SVG 1.1//EN" "http://www.w3.org/Graphics/SVG/1.1/DTD/svg11.dtd"><svg t="1536217188356" class="icon" style="" viewBox="0 0 1024 1024" version="1.1" xmlns="http://www.w3.org/2000/svg" p-id="15492" xmlns:xlink="http://www.w3.org/1999/xlink" width="28" height="28"><defs><style type="text/css"></style></defs><path d="M995.84 566.272L588.928 746.24c-38.976 16.64-54.4 16.64-90.432 0l-407.04-179.968C69.888 555.008 64 513.28 64 490.432c27.2 15.36 65.344 32.32 64 31.424L543.616 710.4l415.68-188.48c0.768-0.128 37.76-18.56 64-31.36 0 23.296-7.36 66.56-27.52 75.776z m0-188.48L588.928 557.76c-38.976 16.64-54.4 16.64-90.432 0l-407.04-179.968c-31.936-16.64-30.912-69.184 0-88.832l407.04-211.328c35.968-17.664 58.496-18.688 90.432 0l407.04 211.328c30.976 16.64 29.952 75.136 0 88.832z m-452.16-264.32L127.936 333.44l415.744 172.288L959.36 333.44 543.68 113.472z m0 785.344L959.36 710.4c0.768-0.128 37.76-18.56 64-31.36 0 23.296-7.36 66.56-27.52 75.84l-406.976 179.904c-38.976 16.64-54.4 16.64-90.432 0l-407.04-179.904c-21.568-11.328-27.392-53.12-27.392-75.84 27.2 15.232 65.344 32.256 64 31.36l415.68 188.48z" p-id="15493"></path></svg>