<?xml version="1.0" standalone="no"?><!DOCTYPE svg PUBLIC "-//W3C//DTD SVG 1.1//EN" "http://www.w3.org/Graphics/SVG/1.1/DTD/svg11.dtd"><svg class="icon" width="28px" height="28.00px" viewBox="0 0 1024 1024" version="1.1" xmlns="http://www.w3.org/2000/svg"><path fill="#000000" d="M870.4 1024 153.6 1024c-19.2 0-32-12.8-32-32L121.6 454.4c0-19.2 12.8-32 32-32l723.2 0c19.2 0 32 12.8 32 32l0 537.6C902.4 1011.2 889.6 1024 870.4 1024zM185.6 960l659.2 0L844.8 486.4 185.6 486.4 185.6 960zM793.6 486.4c-19.2 0-32-12.8-32-32L761.6 313.6C761.6 172.8 646.4 64 512 64S262.4 172.8 262.4 313.6l0 140.8c0 19.2-12.8 32-32 32S198.4 473.6 198.4 454.4L198.4 313.6C198.4 140.8 339.2 0 512 0s313.6 140.8 313.6 313.6l0 140.8C825.6 473.6 812.8 486.4 793.6 486.4zM454.4 620.8c0 38.4 38.4 102.4 38.4 147.2 0 38.4-25.6 51.2-25.6 76.8 0 19.2 19.2 38.4 44.8 38.4 25.6 0 44.8-19.2 44.8-38.4 0-25.6-25.6-38.4-25.6-76.8 0-44.8 38.4-108.8 38.4-147.2 0-32-25.6-51.2-57.6-51.2S454.4 588.8 454.4 620.8z" /></svg>