<?xml version="1.0" standalone="no"?><!DOCTYPE svg PUBLIC "-//W3C//DTD SVG 1.1//EN" "http://www.w3.org/Graphics/SVG/1.1/DTD/svg11.dtd"><svg class="icon" width="28px" height="28.00px" viewBox="0 0 1024 1024" version="1.1" xmlns="http://www.w3.org/2000/svg"><path d="M256 352a32 32 0 0 1-32-32V192a32 32 0 0 1 32-32h608a32 32 0 0 1 32 32v128a32 32 0 0 1-32 32z m32-64h544V224H288zM192 288h96a32 32 0 0 1 0 64H160a32 32 0 0 1-32-32V160a32 32 0 0 1 64 0zM256 640a32 32 0 0 1-32-32v-128a32 32 0 0 1 32-32h608a32 32 0 0 1 32 32v128a32 32 0 0 1-32 32z m32-64h544v-64H288zM192 576h96a32 32 0 0 1 0 64H160a32 32 0 0 1-32-32v-160a32 32 0 0 1 64 0zM256 928a32 32 0 0 1-32-32v-128a32 32 0 0 1 32-32h608a32 32 0 0 1 32 32v128a32 32 0 0 1-32 32z m32-64h544v-64H288zM192 864h96a32 32 0 0 1 0 64H160a32 32 0 0 1-32-32v-160a32 32 0 0 1 64 0z" /></svg>
