<?xml version="1.0" standalone="no"?><!DOCTYPE svg PUBLIC "-//W3C//DTD SVG 1.1//EN" "http://www.w3.org/Graphics/SVG/1.1/DTD/svg11.dtd"><svg class="icon" width="28px" height="28.00px" viewBox="0 0 1024 1024" version="1.1" xmlns="http://www.w3.org/2000/svg"><path d="M967.11146667 364.08853333a34.13333333 34.13333333 0 0 0 34.13333333-34.13333333V238.93333333a125.24693333 125.24693333 0 0 0-125.15626667-125.1552H147.91146667A125.24693333 125.24693333 0 0 0 22.7552 238.93333333v546.13333334a125.24693333 125.24693333 0 0 0 125.15626667 125.1552h728.17706666A125.24693333 125.24693333 0 0 0 1001.2448 785.06666667V512a34.13333333 34.13333333 0 0 0-68.26666667 0v119.46666667H91.02186667V238.93333333c0-31.3568 25.53173333-56.88853333 56.8896-56.88853333h728.17706666c31.35786667 0 56.8896 25.53173333 56.8896 56.88853333v91.02186667c0 18.8416 15.29173333 34.13333333 34.13333334 34.13333333z m-34.13333334 335.6448v85.33333334c0 31.3568-25.53173333 56.88853333-56.8896 56.88853333H147.91146667c-31.35786667 0-56.8896-25.53173333-56.8896-56.88853333v-85.33333334h841.95626666zM796.35200001 427.0304a34.13333333 34.13333333 0 0 1-2e-8 68.26666667h-105.08479999a34.26986667 34.26986667 0 0 1-29.0816-16.2016l-21.5264-34.86186667-80.00853333 132.8928a34.08746667 34.08746667 0 0 1-61.94133335-7.73653333L442.368 382.88533333l-23.712 90.06613334a33.952 33.952 0 0 1-32.90346667 25.3952H227.64693333a34.13333333 34.13333333 0 0 1 0-68.26666667H359.44533332l47.74186668-181.36213333a34.224 34.224 0 0 1 32.40319999-25.44c14.65493333 0.59093333 28.90026667 9.60213333 33.26933334 24.25706666l69.08586667 228.46613334 69.2224-114.96106667a33.9968 33.9968 0 0 1 29.0816-16.52053333h0.18133332c11.8336 0 22.84693333 6.144 29.0816 16.2016l40.91520001 66.30933333h85.92426666zM159.28853333 785.06666667a34.13333333 34.13333333 0 0 1 34.13333334-34.13333334h91.02293333a34.13333333 34.13333333 0 0 1 0 68.26666667h-91.02293333a34.13333333 34.13333333 0 0 1-34.13333334-34.13333333z m227.55626667 0a34.13333333 34.13333333 0 0 1 34.13333333-34.13333334H512a34.13333333 34.13333333 0 0 1 0 68.26666667h-91.02186667a34.13333333 34.13333333 0 0 1-34.13333333-34.13333333z m352.7104 0a45.51146667 45.51146667 0 1 1 91.02293333 0 45.51146667 45.51146667 0 0 1-91.02293333 0z"  /></svg>
