<?xml version="1.0" standalone="no"?><!DOCTYPE svg PUBLIC "-//W3C//DTD SVG 1.1//EN" "http://www.w3.org/Graphics/SVG/1.1/DTD/svg11.dtd"><svg class="icon" width="28px" height="26.02px" viewBox="0 0 1102 1024" version="1.1" xmlns="http://www.w3.org/2000/svg"><path d="M510.976 1022.976H193.024c-49.664 0-90.112-45.568-90.112-101.376V102.4C103.424 46.592 143.36 1.024 193.024 1.024h529.92c49.664 0 90.112 45.568 90.112 101.376v409.6c0 12.288-10.24 22.528-22.528 22.528-12.288 0-22.528-10.24-22.528-22.528V102.4c0-30.208-20.48-56.32-45.056-56.32H193.024C168.96 46.08 148.48 71.68 148.48 102.4v819.2c0 30.208 20.48 56.32 45.056 56.32h317.952c12.288 0 22.528 10.24 22.528 22.528-0.512 12.288-10.24 22.528-23.04 22.528z m279.552-76.288c-12.288 0-22.528-10.24-22.528-22.528v-76.8c0-12.288 10.24-22.528 22.528-22.528 12.288 0 22.528 10.24 22.528 22.528v76.8c0 12.8-9.728 22.528-22.528 22.528z m0 0"  /><path  d="M939.52 1022.976h-297.472c-33.792 0-60.416-20.48-60.416-46.08v-197.632c0-26.112 26.624-46.08 60.416-46.08h297.472c33.792 0 60.416 20.48 60.416 46.08v197.632c0 25.6-26.624 46.08-60.416 46.08z m-311.808-47.104c2.048 0 7.168 2.048 14.336 2.048h297.472c9.216 0 15.36-3.584 16.384-4.608l-1.024-194.56c0 2.048-5.632-1.536-15.36-1.536h-297.472c-9.216 0-15.36 3.584-16.384 4.608l1.024 194.56s0.512-0.512 1.024-0.512z m0 0"  /><path  d="M926.72 757.248c-12.288 0-22.528-10.24-22.528-22.528 0-62.976-51.2-113.664-113.664-113.664s-113.664 51.2-113.664 113.664c0 12.288-10.24 22.528-22.528 22.528-12.288 0-22.528-10.24-22.528-22.528 0-87.552 71.168-158.72 158.72-158.72s158.72 71.168 158.72 158.72c0 12.288-9.728 22.528-22.528 22.528z m0 0M188.928 535.04c0 27.136 22.016 49.152 49.152 49.152s49.152-22.016 49.152-49.152-22.016-49.152-49.152-49.152-49.152 22.016-49.152 49.152z m0 0"  /></svg>
