<?xml version="1.0" standalone="no"?><!DOCTYPE svg PUBLIC "-//W3C//DTD SVG 1.1//EN" "http://www.w3.org/Graphics/SVG/1.1/DTD/svg11.dtd"><svg class="icon" width="28px" height="28.00px" viewBox="0 0 1024 1024" version="1.1" xmlns="http://www.w3.org/2000/svg"><path d="M532.963 544.632a29.885 29.885 0 0 1-17.579-5.705c-13.432-9.722-16.438-28.491-6.715-41.922l97.487-134.675c9.722-13.432 28.491-16.437 41.923-6.715 13.431 9.722 16.438 28.492 6.715 41.923l-97.485 134.675c-5.873 8.11-15.045 12.419-24.346 12.419z"  /><path d="M494.694 544.632c-9.302 0-18.472-4.308-24.344-12.419l-97.487-134.675c-9.722-13.432-6.716-32.201 6.715-41.923 13.432-9.723 32.201-6.717 41.923 6.715l97.488 134.675c9.722 13.432 6.715 32.201-6.716 41.922a29.885 29.885 0 0 1-17.579 5.705z"  /><path d="M912.485 456.114H861.71c-16.581 0-30.021-13.441-30.021-30.021 0-16.581 13.44-30.022 30.021-30.022h50.775c14.312 0 26.441-9.379 27.572-14.457 1.262-5.664-5.23-21.662-19.191-29.762L540.642 131.2c-13.784-7.998-39.843-7.999-53.626 0L106.79 351.851c-15.253 8.851-23.651 26.663-22.956 33.025 0.305 2.787 8.852 11.194 22.73 11.194h50.599c16.58 0 30.021 13.441 30.021 30.022 0 16.581-13.441 30.021-30.021 30.021h-50.599c-42.248 0-78.449-28.424-82.417-64.709-3.577-32.709 18.995-72.04 52.505-91.487l380.225-220.65c32.468-18.842 81.435-18.842 113.9 0l380.225 220.65c34.717 20.146 55.208 60.879 47.663 94.749-3.938 17.679-15.599 33.749-32.835 45.25-15.653 10.446-34.599 16.198-53.345 16.198z"  /><path d="M512.973 958.864H205.585c-43.253 0-78.444-35.189-78.444-78.444V425.802c0-16.581 13.441-30.022 30.022-30.022 16.58 0 30.021 13.441 30.021 30.022V880.42c0 9.974 8.426 18.4 18.4 18.4h307.387c16.58 0 30.021 13.441 30.021 30.021 0.001 16.582-13.439 30.023-30.019 30.023zM813.288 958.864H641.147c-16.58 0-30.021-13.441-30.021-30.022 0-16.58 13.441-30.021 30.021-30.021h172.141c9.974 0 18.4-8.427 18.4-18.4V425.802c0-16.581 13.44-30.022 30.021-30.022 16.58 0 30.022 13.441 30.022 30.022V880.42c0.001 43.255-35.19 78.444-78.443 78.444zM680.126 545.782H347.313c-16.58 0-30.021-13.44-30.021-30.022 0-16.58 13.441-30.021 30.021-30.021h332.812c16.58 0 30.021 13.441 30.021 30.021 0.001 16.582-13.44 30.022-30.02 30.022z"  /><path d="M680.126 689.839H347.313c-16.58 0-30.021-13.441-30.021-30.021 0-16.582 13.441-30.022 30.021-30.022h332.812c16.58 0 30.021 13.44 30.021 30.022 0.001 16.579-13.44 30.021-30.02 30.021z"  /><path d="M513.829 958.864c-16.582 0-30.022-13.441-30.022-30.022V515.76c0-16.58 13.441-30.021 30.022-30.021 16.581 0 30.021 13.441 30.021 30.021v413.082c0.001 16.581-13.44 30.022-30.021 30.022z"  /></svg>
