<?xml version="1.0" standalone="no"?><!DOCTYPE svg PUBLIC "-//W3C//DTD SVG 1.1//EN" "http://www.w3.org/Graphics/SVG/1.1/DTD/svg11.dtd"><svg class="icon" width="28px" height="28.00px" viewBox="0 0 1024 1024" version="1.1" xmlns="http://www.w3.org/2000/svg"><path d="M263.23 759.78a48.272 48.272 0 0 1 2.478-20.816 119.759 119.759 0 0 1 16.52-29.072 377.656 377.656 0 0 1 75.49-55.835c8.92-3.963 61.12-21.638 75.822-34.688a37.83 37.83 0 0 0 2.807-55.667c-17.675-16.519-49.556-88.052-49.556-88.052s-34.194-130.003 38.49-182.531a130.653 130.653 0 0 1 77.967-28.909 173.929 173.929 0 0 1 70.536 13.877 126.204 126.204 0 0 1 58.973 66.073 193.463 193.463 0 0 1 5.616 115.633 284.32 284.32 0 0 1-55.174 106.552 35.679 35.679 0 0 0 8.59 58.805 469.912 469.912 0 0 1 124.222 63.102 137.76 137.76 0 0 1 40.472 49.556 68.132 68.132 0 0 1 2.313 20.98l-495.566 0.991zM98.043 396.36a33.04 33.04 0 0 1-33.037-33.037V165.096c0-54.738 44.374-99.111 99.112-99.111h198.226c18.246 0 33.037 14.792 33.037 33.038 0 18.246-14.791 33.037-33.037 33.037H164.118c-18.246 0-33.037 14.792-33.037 33.036v198.227a33.035 33.035 0 0 1-33.038 33.036z m0 231.268a33.037 33.037 0 0 0-33.037 33.037V858.89a99.113 99.113 0 0 0 99.112 99.113h198.226c18.246 0 33.037-14.791 33.037-33.039 0-18.245-14.791-33.036-33.037-33.036H164.118c-18.246 0-33.037-14.79-33.037-33.038V660.665a33.032 33.032 0 0 0-33.038-33.037zM923.982 396.36a33.036 33.036 0 0 0 33.037-33.036V165.096a99.112 99.112 0 0 0-99.112-99.112H659.68c-18.246 0-33.036 14.792-33.036 33.038 0 18.246 14.79 33.037 33.036 33.037h198.226c18.247 0 33.036 14.792 33.036 33.036v198.227a33.036 33.036 0 0 0 33.039 33.037z m0 231.27a33.025 33.025 0 0 1 23.36 9.676 33.034 33.034 0 0 1 9.677 23.36V858.89a99.115 99.115 0 0 1-99.112 99.113H659.68c-18.246 0-33.036-14.791-33.036-33.039 0-18.245 14.79-33.036 33.036-33.036h198.226a33.04 33.04 0 0 0 23.36-9.676 33.043 33.043 0 0 0 9.676-23.362V660.665a33.032 33.032 0 0 1 9.677-23.36 33.032 33.032 0 0 1 23.362-9.677z"  /></svg>
