<?xml version="1.0" standalone="no"?><!DOCTYPE svg PUBLIC "-//W3C//DTD SVG 1.1//EN" "http://www.w3.org/Graphics/SVG/1.1/DTD/svg11.dtd"><svg class="icon" width="28px" height="28.00px" viewBox="0 0 1024 1024" version="1.1" xmlns="http://www.w3.org/2000/svg"><path d="M983.9 312.7c-25.7-61-62.5-115.7-109.3-162.7-46.8-47-101.4-83.9-162.2-109.7C649.5 13.5 582.7 0 513.8 0c-68.9 0-135.7 13.5-198.6 40.3C254.4 66.1 199.8 103 153 150c-46.8 47-83.6 101.8-109.3 162.7C17.1 375.9 3.6 442.9 3.6 512c0 69.1 13.5 136.1 40.1 199.3C69.4 772.2 106.1 827 153 874c46.8 47 101.4 83.9 162.2 109.7 62.9 26.7 129.8 40.3 198.6 40.3 68.9 0 135.7-13.5 198.6-40.3C773.2 957.9 827.8 921 874.6 874c46.8-47 83.6-101.8 109.3-162.7 26.6-63.1 40.1-130.2 40.1-199.3C1024 442.9 1010.5 375.9 983.9 312.7zM958.9 480 807.1 480c-3.1-74.1-17-146.7-41.4-216.3 27.1-15.5 52.8-33.6 77-54.1C908.8 281.9 951.5 376.1 958.9 480zM545.8 65.1c12.2 0.9 24.2 2.2 36.1 4.1 42 49.7 76.4 104.8 102.5 163.4-43.9 18.3-90.6 29.6-138.6 33L545.8 65.1zM481.8 265.6c-48-3.5-94.7-14.7-138.6-33 26.1-58.6 60.5-113.7 102.5-163.4 11.9-1.8 23.9-3.2 36.1-4.1L481.8 265.6zM481.8 329.7 481.8 480 284.5 480c3-64.3 15-127.5 35.4-187.8C371.1 313.4 425.7 326.2 481.8 329.7zM481.8 544l0 150.3c-56.1 3.5-110.7 16.3-161.9 37.5-20.4-60.3-32.4-123.4-35.4-187.8L481.8 544zM481.8 758.4l0 200.4c-12.2-0.9-24.2-2.2-36.1-4.1-42-49.7-76.4-104.8-102.5-163.4C387.1 773.1 433.8 761.9 481.8 758.4zM545.8 758.4c48 3.5 94.7 14.7 138.6 33-26.1 58.6-60.5 113.7-102.5 163.4-11.9 1.8-23.9 3.2-36.1 4.1L545.8 758.4zM545.8 694.3 545.8 544 743 544c-3 64.3-15 127.5-35.4 187.8C656.5 710.6 601.9 697.8 545.8 694.3zM545.8 480 545.8 329.7c56.1-3.5 110.7-16.3 161.9-37.5C728 352.5 740 415.7 743 480L545.8 480zM796 165.2c-17.2 14.2-35.4 27-54.3 38.4C725 166.6 705.4 131.2 683 97.5 724.1 114.4 762.1 137.4 796 165.2zM344.6 97.5c-22.4 33.7-42 69.2-58.6 106.1-18.9-11.4-37-24.2-54.3-38.4C265.5 137.4 303.5 114.4 344.6 97.5zM184.9 209.5c24.1 20.5 49.9 38.6 77 54.1-24.4 69.6-38.3 142.2-41.4 216.3L68.7 479.9C76.1 376.1 118.8 281.9 184.9 209.5zM68.7 544l151.8 0c3.1 74.1 17 146.7 41.4 216.3-27.1 15.5-52.8 33.6-77 54.1C118.8 742.1 76.1 647.9 68.7 544zM231.6 858.8c17.2-14.2 35.4-27 54.3-38.4 16.7 36.9 36.2 72.4 58.6 106.1C303.5 909.6 265.5 886.6 231.6 858.8zM683 926.5c22.4-33.7 42-69.2 58.6-106.1 18.9 11.4 37.1 24.2 54.3 38.4C762.1 886.6 724.1 909.6 683 926.5zM842.7 814.4c-24.2-20.5-49.9-38.6-77-54.1 24.4-69.6 38.3-142.2 41.4-216.3l151.8 0C951.5 647.9 908.8 742.1 842.7 814.4z" /></svg>
