<?xml version="1.0" standalone="no"?><!DOCTYPE svg PUBLIC "-//W3C//DTD SVG 1.1//EN" "http://www.w3.org/Graphics/SVG/1.1/DTD/svg11.dtd"><svg class="icon" width="28px" height="28.00px" viewBox="0 0 1024 1024" version="1.1" xmlns="http://www.w3.org/2000/svg"><path d="M657.7 636.9c11.9-12.4 11.9-31.8-0.5-44.3-11.9-11.9-31.8-11.9-43.8 0l-70.6 70.6V365.8c0-16.9-13.9-30.8-30.8-30.8s-30.8 13.9-30.8 30.8v297.5L412 594.1c-11.9-11.9-31.8-11.9-43.8 0-11.9 11.9-11.9 31.8 0 43.8l122.4 122.4c11.9 11.9 31.8 11.9 43.8 0l123.3-123.4z m0 0"  /><path d="M782.5 303.6C739.8 187 627.8 103.2 496.3 103.2c-166.5 0-301.6 133.6-304.2 299.6-74 26.2-127.4 96.6-128.5 179.3-1 106.9 89.4 194.2 195.8 194.2H320c17.5 0 31.9-14.4 31.9-31.9s-14.4-31.9-31.9-31.9h-61.7c-63.2 0-119.2-45.2-129-107.4-10.3-62.2 26.2-121.3 83.8-141.3l42.1-14.9 0.5-44.7c2.1-137.2 121.8-247.2 261-235.3 94 8.2 174.2 72.5 206.6 161.3l9.8 27.2 32.4 8.7c81.2 21.6 136.7 98.1 130.5 183.4-6.7 92.5-86.3 162.9-179.3 162.9h-12.8c-17.5 0-31.9 14.4-31.9 31.9s14.4 31.9 31.9 31.9h11.8c132.6 0 243.6-105.9 244.6-238.4 1.6-112.4-74.5-207-177.8-234.2zM769 920.8H256.8c-13.7 0-24.9-11.2-24.9-24.9v-12.7c0-13.7 11.2-24.9 24.9-24.9H769c13.7 0 24.9 11.2 24.9 24.9v12.7c0 13.7-11.2 24.9-24.9 24.9z"  /></svg>
