<?xml version="1.0" standalone="no"?><!DOCTYPE svg PUBLIC "-//W3C//DTD SVG 1.1//EN" "http://www.w3.org/Graphics/SVG/1.1/DTD/svg11.dtd"><svg class="icon" width="28px" height="28.00px" viewBox="0 0 1024 1024" version="1.1" xmlns="http://www.w3.org/2000/svg"><path d="M418.133333 499.2c-21.333333-34.133333-29.866667-72.533333-29.866666-115.2 0-119.466667 93.866667-213.333333 213.333333-213.333333s213.333333 93.866667 213.333333 213.333333-93.866667 213.333333-213.333333 213.333333c-46.933333 0-85.333333-12.8-123.733333-38.4l-98.133334 98.133334 46.933334 46.933333-59.733334 59.733333-46.933333-46.933333-29.866667 29.866667 46.933334 46.933333L277.333333 853.333333 170.666667 746.666667l247.466666-247.466667zM601.6 256c-72.533333 0-128 55.466667-128 128s55.466667 128 128 128 128-55.466667 128-128-59.733333-128-128-128z"  /></svg>
