<?xml version="1.0" standalone="no"?><!DOCTYPE svg PUBLIC "-//W3C//DTD SVG 1.1//EN" "http://www.w3.org/Graphics/SVG/1.1/DTD/svg11.dtd"><svg t="1540950138179" class="icon" style="" viewBox="0 0 1024 1024" version="1.1" xmlns="http://www.w3.org/2000/svg" p-id="6628" xmlns:xlink="http://www.w3.org/1999/xlink" width="28" height="28"><defs><style type="text/css"></style></defs><path d="M172.8 925.866667c-4.266667 21.333333-21.333333 36.266667-38.4 34.133333l0 0c-17.066667-2.133333-29.866667-23.466667-25.6-44.8l138.666667-842.666667c4.266667-21.333333 21.333333-36.266667 38.4-34.133333l0 0c17.066667 2.133333 29.866667 23.466667 25.6 44.8L172.8 925.866667zM552.533333 288c0 10.666667-12.8 21.333333-29.866667 21.333333l0 0c-17.066667 0-29.866667-8.533333-29.866667-21.333333L492.8 93.866667c0-10.666667 12.8-21.333333 29.866667-21.333333l0 0c17.066667 0 29.866667 8.533333 29.866667 21.333333L552.533333 288zM552.533333 608c0 12.8-12.8 23.466667-29.866667 23.466667l0 0c-17.066667 0-29.866667-10.666667-29.866667-23.466667L492.8 390.4c0-12.8 12.8-23.466667 29.866667-23.466667l0 0c17.066667 0 29.866667 10.666667 29.866667 23.466667L552.533333 608zM552.533333 936.533333c0 12.8-12.8 23.466667-29.866667 23.466667l0 0c-17.066667 0-29.866667-10.666667-29.866667-23.466667L492.8 718.933333c0-12.8 12.8-23.466667 29.866667-23.466667l0 0c17.066667 0 29.866667 10.666667 29.866667 23.466667L552.533333 936.533333zM853.333333 928c4.266667 21.333333 21.333333 36.266667 38.4 34.133333l0 0c17.066667-2.133333 29.866667-23.466667 25.6-44.8L778.666667 74.666667c-4.266667-21.333333-21.333333-36.266667-38.4-34.133333l0 0C721.066667 44.8 710.4 64 714.666667 85.333333L853.333333 928z" p-id="6629"></path></svg>