<?xml version="1.0" standalone="no"?><!DOCTYPE svg PUBLIC "-//W3C//DTD SVG 1.1//EN" "http://www.w3.org/Graphics/SVG/1.1/DTD/svg11.dtd"><svg class="icon" width="28px" height="28.00px" viewBox="0 0 1024 1024" version="1.1" xmlns="http://www.w3.org/2000/svg"><path d="M63.556899 941.221258v-616.097513c0.698976-1.397952 1.797367-2.596197 1.997075-4.094003 6.790054-47.829937 40.241053-76.987226 88.270697-76.987226h223.073232c-4.094003-5.791516-6.590346-9.286397-9.186543-12.781278-41.838713-56.716919-83.976987-113.134276-125.116723-170.250609-5.691663-7.888445-8.986836-19.371624-8.986836-29.157289 0-14.279083 12.282009-26.361385 25.662409-29.057436 16.475865-3.295173 29.157289 2.696051 39.142662 16.276158C351.235495 90.966748 404.357679 162.561872 457.080449 234.456558c5.09254 6.989761 10.284934 10.085227 19.072062 9.785665 23.56548-0.599122 47.230814-0.698976 70.896148 0 9.785666 0.299561 15.377474-3.195319 20.969283-10.884056C620.441151 161.763042 673.064066 90.267772 726.385958 19.371624c5.791516-7.688737 16.076451-14.079376 25.462701-16.57572 14.678498-3.894295 27.359922 3.095466 34.948806 16.376012 7.888445 13.679961 6.091078 27.260068-3.295173 39.941492-42.637543 57.615602-85.175232 115.231204-127.613067 172.94666-2.496343 3.295173-4.593272 6.889907-7.788591 11.78274 77.087079 0 151.577962-0.099854 226.168698 0 38.942955 0.099854 71.395417 24.963432 81.979912 62.608289 1.697513 6.091078 3.095466 12.282009 4.593272 18.373086v616.097514c-4.29371 13.280546-6.989761 27.459776-13.180692 39.741784-12.381863 24.264456-34.948805 36.047196-60.111946 43.336519H137.049244c-2.596197-0.998537-5.09254-2.096928-7.688737-2.895758-33.051585-9.985373-53.921014-31.653632-62.308727-65.204486-1.397952-4.593272-2.39649-9.685812-3.494881-14.678498z m449.241931-621.389761h-294.568503c-44.834325 0-74.291175 29.356997-74.391029 73.991614v398.516236c0 45.034032 29.856265 75.090005 74.990151 75.090005 195.613457 0.099854 391.12706 0.099854 586.740517 0 45.133886 0 74.990151-30.155826 74.990151-75.090005V395.121209c0-46.232277-29.057435-75.189859-75.589274-75.189858-97.45724-0.099854-194.814627-0.099854-292.172013-0.099854z m44.634617 624.185665c0.199707-25.362847-20.370161-46.332131-45.23374-46.33213-24.36431 0-45.034032 20.669722-45.133885 45.233739-0.199707 25.562555 19.970746 46.032569 45.233739 45.932716 24.763725-0.099854 44.934178-20.0706 45.133886-44.834325z m-176.441541-27.659483c-15.077913-0.099854-26.960507 11.682886-26.960507 26.860654-0.099854 15.177767 11.682886 27.160215 26.660946 27.260068 14.778352 0.099854 27.060361-12.182155 27.260068-26.960507 0-14.778352-12.082301-27.060361-26.960507-27.160215z m289.475963 26.960507c0-15.077913-11.982448-26.960507-26.960507-26.960507-14.878206 0-27.060361 12.282009-26.960507 27.060361 0.099854 14.678498 12.481716 27.060361 27.160215 27.060361 14.778352 0 26.7608-12.082301 26.760799-27.160215z" /><path d="M664.476646 513.348025c-14.17923 50.925402-27.959044 100.552706-42.038421 150.779132-3.295173 0.299561-6.490492 0.199707-9.585958 0.79883-9.386251 1.697513-13.679961-2.096928-15.976597-11.383325-5.09254-19.970746-11.383325-39.641931-18.173378-62.807996-7.788591 26.660946-14.678498 49.827011-21.568406 73.492345h-21.867967c-13.879668-49.627304-27.759337-99.554169-42.03842-150.379717h36.446611c5.392101 22.067674 10.784203 43.735934 16.076451 65.404193 0.698976 0.199707 1.397952 0.299561 1.997074 0.499269 4.29371-15.277621 8.587421-30.455388 12.881131-45.733009 6.091078-21.768113 6.091078-21.768113 30.455388-20.070599 5.991224 21.768113 12.082301 43.835787 19.171916 69.498196 5.491955-22.067674 10.784203-40.740322 14.578645-59.712531 1.797367-8.886982 5.591809-11.283471 13.979522-10.584495 8.088152 0.79883 16.276158 0.199707 25.662409 0.199707zM327.370453 513.74744h36.147051v151.178547c-10.784203 0-21.268844 0.599122-31.653633-0.299561-3.295173-0.299561-7.588883-3.994149-9.186543-7.289322-11.583033-22.76665-22.666797-45.832862-35.747635-68.699366v75.289712H251.381765V513.348025c11.083764 0 21.668259-0.599122 32.152901 0.399415 3.195319 0.299561 7.189469 4.593272 8.787128 7.988299 11.283471 23.465627 21.967821 47.130961 35.048659 70.69644v-78.684739zM744.559337 554.68747c-1.59766-3.694588-2.795904-7.688737-4.892833-10.983911-5.491955-8.387713-17.374549-9.985373-24.464164-3.694588-6.290785 5.591809-6.390639 16.376012 1.098391 22.666797 5.491955 4.493418 12.681424 6.889907 18.972209 10.484642 11.283471 6.390639 23.964895 11.083764 33.251292 19.571331 24.564018 22.367235 16.076451 59.71253-15.377474 70.496733-17.873818 6.190931-36.047196 5.791516-53.821161-0.998537-16.975134-6.490492-26.960507-22.367235-26.461238-41.838713h33.151438c1.098391 3.395027 1.298098 8.387713 3.894296 10.684349 5.09254 4.493418 11.183618 9.685812 17.474402 10.484642 4.393564 0.599122 12.481716-4.792979 13.679961-9.08669 1.59766-5.491955-0.099854-13.979522-3.694588-18.572794-4.493418-5.691663-12.282009-8.886982-18.972208-12.58157-9.585958-5.392101-19.870892-9.486104-28.957582-15.477328-14.279083-9.386251-20.0706-23.365773-17.074988-40.141199 2.696051-15.177767 12.381863-25.562555 26.860654-30.555242 20.470015-7.089615 40.940029-6.889907 60.012091 4.393565 12.58157 7.48903 19.171916 19.27177 19.771039 34.948805-11.78274 0.199707-23.066212 0.199707-34.449537 0.199708zM428.322574 573.859386h47.530376v24.763725h-47.630229v41.938566h55.219112v24.064749c-23.865041 0-47.829937 1.098391-71.595124-0.499269-11.78274-0.79883-20.0706-10.584495-20.270307-22.76665-0.599122-42.238128-0.199707-84.476255-0.199708-127.213652h90.068065v23.365773h-53.122185v36.346758z" /></svg>
