<?xml version="1.0" standalone="no"?><!DOCTYPE svg PUBLIC "-//W3C//DTD SVG 1.1//EN" "http://www.w3.org/Graphics/SVG/1.1/DTD/svg11.dtd"><svg t="1535958137962" class="icon" style="" viewBox="0 0 1024 1024" version="1.1" xmlns="http://www.w3.org/2000/svg" p-id="1751" xmlns:xlink="http://www.w3.org/1999/xlink" width="28" height="28"><defs><style type="text/css"></style></defs><path d="M791.5 831H249l0.1-358.3H92.8L518.4 96.6l413.4 376.1H791.4l0.1 358.3zM299 781h442.4l-0.1-358.3h61.1l-284.6-259-293 259H299V781z" p-id="1752"></path><path d="M519.3 726.9c-4.4 0-8.9-1.2-12.8-3.6-1.6-0.9-38.9-23.4-76.7-56-54.4-46.8-82-90.5-82-129.9 0-64.1 52.1-116.2 116.2-116.2 19.6 0 38.5 4.8 55.4 14 16.9-9.2 35.7-14 55.4-14 64.1 0 116.2 52.1 116.2 116.2 0 39.9-27.6 83.8-82 130.4-37.9 32.4-75.3 54.6-76.8 55.6-4.1 2.3-8.5 3.5-12.9 3.5z m-55.4-255.6c-36.5 0-66.2 29.7-66.2 66.2 0 23.4 22.8 55.9 64.1 91.6 21.9 18.9 44.1 34.4 57.6 43.3 13.4-8.8 35.6-24.1 57.5-42.9 41.3-35.5 64-68.1 64-92 0-36.5-29.7-66.2-66.2-66.2-14.7 0-28.6 4.7-40.2 13.6-9 6.9-21.4 6.9-30.4 0-11.6-8.9-25.5-13.6-40.2-13.6z"  p-id="1753"></path></svg>
