<?xml version="1.0" standalone="no"?><!DOCTYPE svg PUBLIC "-//W3C//DTD SVG 1.1//EN" "http://www.w3.org/Graphics/SVG/1.1/DTD/svg11.dtd"><svg class="icon" width="28px" height="28.00px" viewBox="0 0 1024 1024" version="1.1" xmlns="http://www.w3.org/2000/svg"><path d="M856.954985 385.981888c-0.576121 51.994188-17.180288 99.533924-39.609113 145.413857-33.606399 68.75185-78.228689 130.188084-126.728286 188.95349-45.148269 54.706973-93.597725 106.356306-145.30948 154.923442-18.070564 16.966417-34.56012 17.48728-53.085032 0.859577-95.919607-86.087681-182.122921-180.470281-247.924579-292.121174-10.708899-18.169825-20.417005-36.901445-28.77844-56.283888-7.924483-18.371416-1.090844-37.588083 16.018835-45.521776 17.158798-7.957229 36.875862-0.977257 45.222971 17.178241 39.327704 85.524862 96.852862 158.196998 159.714562 227.119741 24.238031 26.575262 49.630351 52.033074 75.916017 76.598562 3.251044 3.035126 5.296633 5.501294 9.914814 0.850367 87.10894-87.772043 168.662351-179.933045 228.0356-289.487184 17.307178-31.93534 31.737842-65.306378 36.57194-101.670587 7.284917-54.81749-3.724835-106.969267-29.730115-155.072845-49.526997-91.616604-126.402875-143.862525-231.327576-147.546428-119.527281-4.194532-225.729068 72.993454-263.348873 186.984648-9.450233 28.636201-14.455223 57.984622-14.845103 88.142479-0.278339 21.561062-14.415314 36.784788-33.901111 36.734646-19.547195-0.047072-33.82027-15.626909-33.762965-36.842093 0.442068-160.357198 110.895693-299.273061 266.558985-335.243297C575.346235 20.187785 713.3094 73.709769 791.261797 183.556573 834.320475 244.230444 855.712691 311.864844 856.954985 385.981888zM136.976186 921.538397c254.766404 0 508.070504 0 761.591545 0-0.037862-4.378727-2.922563-7.237845-4.750187-10.443863-33.05279-58.048067-66.178235-116.059296-99.363032-174.032662-7.121188-12.438287-7.562233-24.825408 0.360204-36.855396 7.136537-10.840906 17.59882-16.087397 30.610158-15.196097 11.692297 0.806365 20.893866 6.54916 26.681686 16.642029 45.293579 79.001285 90.644463 157.970848 135.468344 237.237169 13.837146 24.473391-3.272533 50.588165-32.371268 50.595328-151.58644 0.050142-303.172881 0.023536-454.755228 0.023536-138.542356 0-277.091876-0.693802-415.621952 0.533143-31.091112 0.277316-50.15326-28.113291-33.062-56.870242 44.724621-75.246775 87.2389-151.807475 130.681318-227.818659 9.356089-16.367783 23.981181-23.556509 39.297005-19.578917 22.651906 5.892197 32.509415 29.940916 20.503986 51.17452-23.185049 41.015136-46.706765 81.84096-70.065775 122.756835C160.695401 879.824343 149.256884 899.965056 136.976186 921.538397zM653.782655 380.311749c0.008186 74.774007-61.005422 135.555325-135.90632 135.38648-74.259284-0.165776-134.827755-60.983933-134.825708-135.37727 0.004093-74.859965 60.867276-135.492904 135.870504-135.352711C593.176322 245.105371 653.776516 305.924551 653.782655 380.311749zM518.829034 312.651766c-37.586037 0.010233-68.025303 30.203906-68.087725 67.536162-0.062422 37.753859 30.839379 68.179822 68.88488 67.822688 36.531008-0.342808 66.62849-31.17707 66.470901-68.095911C585.939501 343.05624 555.526841 312.64358 518.829034 312.651766z" /></svg>
