<?xml version="1.0" standalone="no"?><!DOCTYPE svg PUBLIC "-//W3C//DTD SVG 1.1//EN" "http://www.w3.org/Graphics/SVG/1.1/DTD/svg11.dtd"><svg class="icon" width="28px" height="28.00px" viewBox="0 0 1024 1024" version="1.1" xmlns="http://www.w3.org/2000/svg"><path d="M554.666667 693.333333a32 32 0 1 1 0 64H85.333333c-41.813333 0-74.666667-35.413333-74.666666-77.952V173.952C10.666667 131.413333 43.52 96 85.333333 96h725.333334c41.813333 0 74.666667 35.413333 74.666666 77.952V265.813333a32 32 0 1 1-64 0V173.952c0-8.234667-5.333333-13.952-10.666666-13.952H85.333333c-5.333333 0-10.666667 5.717333-10.666666 13.952v505.429333c0 8.234667 5.333333 13.952 10.666666 13.952h469.333334z m170.666666-298.666666h213.333334c41.216 0 74.666667 33.450667 74.666666 74.666666v426.666667A74.666667 74.666667 0 0 1 938.666667 970.666667h-213.333334A74.666667 74.666667 0 0 1 650.666667 896V469.333333c0-41.216 33.450667-74.666667 74.666666-74.666666z m0 64a10.666667 10.666667 0 0 0-10.666666 10.666666v426.666667c0 5.888 4.778667 10.666667 10.666666 10.666667h213.333334a10.666667 10.666667 0 0 0 10.666666-10.666667V469.333333a10.666667 10.666667 0 0 0-10.666666-10.666666h-213.333334z m-170.666666 405.333333v64H341.333333v-64h213.333334z" /></svg>
