<?xml version="1.0" standalone="no"?><!DOCTYPE svg PUBLIC "-//W3C//DTD SVG 1.1//EN" "http://www.w3.org/Graphics/SVG/1.1/DTD/svg11.dtd"><svg t="1536217049369" class="icon" style="" viewBox="0 0 1024 1024" version="1.1" xmlns="http://www.w3.org/2000/svg" p-id="13257" xmlns:xlink="http://www.w3.org/1999/xlink" width="28" height="28"><defs><style type="text/css"></style></defs><path d="M147.370419 91.046622l727.603453 0c22.855544 0 43.751457 9.390881 58.894342 24.505114l0.118704 0.118704c15.119349 15.167444 24.534789 36.075637 24.534789 58.894342l0 666.428162c0 22.849404-9.414417 43.72792-24.534789 58.894342l-0.118704 0.118704c-15.143908 15.114233-36.039821 24.534789-58.894342 24.534789L149.026128 924.540777c-22.88522 0-43.757596-9.420557-58.900481-24.534789l-0.113587-0.118704c-15.119349-15.167444-24.534789-36.045961-24.534789-58.894342L65.47727 172.939771c0-22.528086 9.212826-43.060725 24.040533-57.882292l2.12029-1.888C106.257046 99.478665 125.878942 91.046622 147.370419 91.046622L147.370419 91.046622zM874.973872 150.584624 147.370419 150.584624c-5.64558 0-10.903328 2.12029-14.833847 5.580089l-0.929162 0.982374c-4.067642 4.043083-6.598278 9.682523-6.598278 15.792685l0 668.054195c0 6.455015 2.50096 12.267395 6.568602 16.513092l0.38067 0.411369 0.143263 0.113587c4.245697 4.299933 10.266831 6.973832 16.924461 6.973832l725.948767 0c6.455015 0 12.297071-2.50096 16.542768-6.568602l0.405229-0.405229 0.118704-0.113587c4.275373-4.245697 6.943133-10.296507 6.943133-16.924461l0-666.428162c0-6.455015-2.494821-12.297071-6.538927-16.513092l-0.405229-0.411369-0.118704-0.113587C887.652636 153.228847 881.631502 150.584624 874.973872 150.584624z" p-id="13258"></path><path d="M214.316134 329.133136c-16.424064 0-29.769001-13.338796-29.769001-29.769001 0-16.45374 13.344936-29.769001 29.769001-29.769001L809.65419 269.595134c16.45374 0 29.798676 13.31526 29.798676 29.769001 0 16.430204-13.344936 29.769001-29.798676 29.769001L214.316134 329.133136z" p-id="13259"></path><path d="M233.264695 448.220395l199.664436 0c13.541411 0 25.927509 5.555529 34.825157 14.476713 8.92016 8.896624 14.476713 21.307282 14.476713 34.854832l0 199.081151c0 13.600763-5.555529 25.928532-14.476713 34.878368-8.896624 8.896624-21.282722 14.422478-34.825157 14.422478L233.847979 745.933937c-13.600763 0-25.927509-5.525853-34.848693-14.422478-8.902764-8.949836-14.453177-21.277606-14.453177-34.878368L184.54611 496.944096c0-13.285584 5.466502-25.469068 14.303774-34.30634l0.118704-0.118704C207.771067 453.716572 219.955574 448.220395 233.264695 448.220395L233.264695 448.220395zM422.692998 507.788072l-178.607864 0 0 178.607864 178.607864 0L422.692998 507.788072z" p-id="13260"></path><path d="M631.188566 506.258229c-16.45374 0-29.769001-13.338796-29.769001-29.762861 0-16.430204 13.31526-29.769001 29.769001-29.769001l178.464601 0c16.45374 0 29.798676 13.338796 29.798676 29.769001 0 16.424064-13.344936 29.762861-29.798676 29.762861L631.188566 506.258229z" p-id="13261"></path><path d="M631.188566 685.455517c-16.45374 0-29.769001-13.374612-29.769001-29.828352 0-16.399505 13.31526-29.769001 29.769001-29.769001l178.464601 0c16.45374 0 29.798676 13.368472 29.798676 29.769001 0 16.45374-13.344936 29.828352-29.798676 29.828352L631.188566 685.455517z" p-id="13262"></path></svg>