<?xml version="1.0" standalone="no"?><!DOCTYPE svg PUBLIC "-//W3C//DTD SVG 1.1//EN" "http://www.w3.org/Graphics/SVG/1.1/DTD/svg11.dtd"><svg class="icon" width="28px" height="28.00px" viewBox="0 0 1024 1024" version="1.1" xmlns="http://www.w3.org/2000/svg"><path d="M791.228027 899.230322 488.855372 697.739285c-10.288321-6.675026-16.172331-18.201547-16.172331-29.763884l0 0 0-0.275269-37.814234 0L504.166079 865.648482c6.399757 18.441001-3.027963 39.498596-22.021549 45.899376l-67.782779 23.912619-67.197448 23.086811c-19.028379 6.67605-39.603996-3.337002-46.243207-22.088064l-95.446839-274.125311c-36.506449-9.017374-68.849064-28.764114-92.934622-55.979966-29.280884-32.342616-46.726208-74.939783-46.726208-121.185037 0-50.303686 20.265556-95.963609 53.366442-128.821971l0-0.51677 1.066285-0.5137c32.790824-32.825616 78.484515-53.126988 128.306224-53.126988l224.12964 0 0-0.274246c0-13.352099 7.122211-25.15389 18.167778-31.31317L792.775266 69.113077c16.895809-11.026124 39.22435-6.432503 50.02944 10.511401 4.370541 6.192026 6.124488 12.83533 6.124488 19.767206l0.310062 0 0 245.393943c24.601304 6.67605 46.690392 19.268856 64.652486 36.747949l1.032516 1.238201c26.424836 26.218128 42.595121 62.139246 42.595121 102.396111 0 39.568181-16.170285 75.764568-42.595121 101.94995-17.962094 17.96107-40.533159 31.345915-65.683978 37.744649L849.240279 870.498954c0 19.717064-16.48137 36.162618-36.263925 36.162618C804.543288 906.661571 796.835745 904.116609 791.228027 899.230322L791.228027 899.230322zM501.688655 595.58365 501.688655 595.58365l0-220.757846L248.552377 374.825804c-30.828123 0-58.32129 12.351306-78.036307 32.100092-20.025079 20.026102-32.342616 47.484478-32.342616 78.244039 0 28.006867 10.253528 53.400211 27.697829 73.460082 17.71957 19.473517 42.629913 33.101909 70.362534 35.920094 13.316284 1.549286 25.152866 10.530844 30.278607 24.12342l90.629113 260.291235 33.616632-11.803837 33.340339-11.800767-73.148997-208.957079c-1.789763-4.88424-2.856048-9.769504-2.856048-15.414061 0-19.47454 15.929808-35.404348 36.023448-35.404348L501.688655 595.584674 501.688655 595.58365zM545.315268 339.418386 545.315268 339.418386l0 291.088658 0 0.480954 0 1.585101 0 0.480954L545.315268 648.707568l231.221152 154.24806 0-636.056434L545.315268 321.184093l0 16.687054 0 0.51677L545.315268 339.418386 545.315268 339.418386zM849.238232 390.203026 849.238232 390.203026l0 189.242062c13.31526-4.88424 25.357528-12.868075 35.440164-22.845311 18.408255-18.23634 29.692253-43.698245 29.692253-71.430866 0-28.213575-11.282974-53.606919-29.692253-71.844282l-1.100054-1.031493C873.839537 402.797879 862.073562 395.365606 849.238232 390.203026L849.238232 390.203026z" /></svg>
