<?xml version="1.0" standalone="no"?><!DOCTYPE svg PUBLIC "-//W3C//DTD SVG 1.1//EN" "http://www.w3.org/Graphics/SVG/1.1/DTD/svg11.dtd"><svg class="icon" width="28px" height="28.00px" viewBox="0 0 1024 1024" version="1.1" xmlns="http://www.w3.org/2000/svg"><path d="M882.176 148.992c-8.192-4.096-18.432-2.56-25.6 3.072-86.528 72.192-171.52 112.128-238.592 134.144-39.424 12.8-72.192 19.456-95.232 23.04-17.408 2.56-29.696 3.584-34.816 4.096l-43.008-4.096h-155.136c-88.576 0-160.256 71.168-160.256 159.232 0 67.072 42.496 124.928 101.888 147.968l108.032 245.76c4.096 8.704 12.288 14.336 22.016 14.336h120.832c7.68 0 14.336-3.584 18.944-9.216 4.608-6.144 6.144-13.824 4.608-20.992l-59.904-227.84h41.984c7.168 0.512 28.16 2.048 59.904 9.216 28.672 6.656 66.56 17.408 110.08 35.84 57.856 24.064 125.952 60.416 199.68 116.736 4.608 3.072 9.216 4.608 14.336 4.608 3.584 0 7.168-1.024 10.24-2.56 8.192-4.096 13.312-12.288 13.312-21.504V171.008c0.512-9.216-5.12-18.432-13.312-22.016z m-715.264 320c0-61.44 60.416-121.344 122.88-121.344h112.64v242.688h-113.152c-61.952 0-122.368-60.416-122.368-121.344z m199.168 370.176l-88.576-211.456h130.048l52.736 211.456h-94.208z m492.032-114.176c-28.16-19.456-65.536-36.352-91.648-50.688-37.376-20.992-72.704-37.376-104.96-50.176-43.008-16.896-79.872-27.136-109.056-33.28-35.328-7.68-58.88-8.704-66.048-9.216h-48.128v-230.4h48.128c5.632 0 19.456-1.024 40.448-4.096 31.232-4.608 77.312-13.824 131.584-34.304 25.6-9.728 53.248-21.504 81.92-36.352 33.792-17.408 80.384-39.424 116.736-66.56v515.072z" /></svg>
