<?xml version="1.0" standalone="no"?><!DOCTYPE svg PUBLIC "-//W3C//DTD SVG 1.1//EN" "http://www.w3.org/Graphics/SVG/1.1/DTD/svg11.dtd"><svg class="icon" width="28px" height="28.00px" viewBox="0 0 1024 1024" version="1.1" xmlns="http://www.w3.org/2000/svg"><path d="M952.612113 869.167632 833.526901 869.167632 833.526901 750.083443l39.050388 40.095183c14.681374-43.553958 4.737908-93.51893-30.079062-128.213104-34.815947-34.697243-84.966137-44.607964-128.680754-29.998221l-32.032554-31.918967c62.174038-29.55513 138.803299-18.862603 190.289927 32.444946 51.485605 51.309596 62.229297 127.662565 32.533974 189.604312L952.612113 869.167632zM665.051815 838.794881c34.815947 34.695197 84.968184 44.604894 128.680754 29.996175l32.030507 31.918967c-62.170968 29.55513-138.800229 18.862603-190.286858-32.444946-51.485605-51.308573-62.231343-127.661541-32.533974-189.602266l-43.307342-47.663556 119.083166 0 0 119.083166-43.745317-39.502689C620.290355 754.134713 630.233821 804.099684 665.051815 838.794881zM428.640454 464.281185c-98.651834 0-178.62526-79.973426-178.62526-178.62526 0-98.652857 79.973426-178.626283 178.62526-178.626283s178.626283 79.973426 178.626283 178.626283C607.266737 384.307759 527.292288 464.281185 428.640454 464.281185zM590.408791 583.574129c-115.959012 4.216022-44.76453 71.242578-44.76453 71.242578-39.037085 81.488942-20.320814 167.091576 38.411845 238.168378L432.386778 892.985084c-1.237177 0.010233-2.449795 0.122797-3.692089 0.122797-1.24127 0-2.451842-0.11154-3.690042-0.122797L124.314307 892.985084c-29.230742 0-52.927443-22.966061-52.927443-51.29834L71.386864 713.441918c0-2.494821 0.125867-29.315676 26.449395-44.177152 90.768283-68.505233 205.53105-109.871363 330.85843-109.871363C485.193471 559.393403 539.420513 568.082296 590.408791 583.574129z" /></svg>
