<?xml version="1.0" standalone="no"?><!DOCTYPE svg PUBLIC "-//W3C//DTD SVG 1.1//EN" "http://www.w3.org/Graphics/SVG/1.1/DTD/svg11.dtd"><svg class="icon" width="28px" height="28.00px" viewBox="0 0 1024 1024" version="1.1" xmlns="http://www.w3.org/2000/svg"><path d="M85.333333 1024H0V42.666667C0 19.2 19.2 0 42.666667 0s42.666667 19.2 42.666666 42.666667v981.333333zM1024 981.333333c0 23.466667-19.2 42.666667-42.666667 42.666667H0v-85.333333h981.333333c23.466667 0 42.666667 19.2 42.666667 42.666666zM234.666667 640c-10.666667 0-23.466667-4.266667-32-14.933333-14.933333-17.066667-14.933333-44.8 2.133333-59.733334l213.333333-192c14.933333-12.8 38.4-14.933333 53.333334-2.133333l202.666666 147.2 166.4-202.666667c14.933333-19.2 42.666667-21.333333 59.733334-6.4 19.2 14.933333 21.333333 42.666667 6.4 59.733334l-192 234.666666c-14.933333 17.066667-40.533333 21.333333-57.6 8.533334l-206.933334-149.333334-187.733333 168.533334c-6.4 4.266667-17.066667 8.533333-27.733333 8.533333z" /></svg>
