<?xml version="1.0" standalone="no"?><!DOCTYPE svg PUBLIC "-//W3C//DTD SVG 1.1//EN" "http://www.w3.org/Graphics/SVG/1.1/DTD/svg11.dtd"><svg class="icon" width="28px" height="28.00px" viewBox="0 0 1024 1024" version="1.1" xmlns="http://www.w3.org/2000/svg"><path d="M480 0C214.912 0 0 214.912 0 480S214.912 960 480 960 960 745.088 960 480 745.088 0 480 0zM480 896C250.624 896 64 709.376 64 480S250.624 64 480 64 896 250.624 896 480 709.376 896 480 896zM543.616 192 384 192 320 192l0 64 0 256 0 64 0 256 64 0L384 576l159.616 0c97.984 0 171.136-101.376 171.136-192S641.536 192 543.616 192zM543.616 512 384 512 384 256l159.616 0c59.328 0 107.136 70.016 107.136 128S602.944 512 543.616 512z" /></svg>
