<?xml version="1.0" standalone="no"?><!DOCTYPE svg PUBLIC "-//W3C//DTD SVG 1.1//EN" "http://www.w3.org/Graphics/SVG/1.1/DTD/svg11.dtd"><svg class="icon" width="28px" height="28.00px" viewBox="0 0 1024 1024" version="1.1" xmlns="http://www.w3.org/2000/svg"><path d="M744.106667 989.866667c-6.826667 0-13.653333-3.413333-17.066667-6.826667l-92.16-85.333333-92.16 85.333333c-3.413333 3.413333-10.24 6.826667-17.066667 6.826667h-10.24c-6.826667 0-13.653333-3.413333-17.066666-6.826667l-92.16-85.333333-92.16 85.333333c-6.826667 3.413333-13.653333 6.826667-20.48 6.826667h-10.24c-6.826667 0-13.653333-3.413333-17.066667-6.826667l-92.16-85.333333-92.16 85.333333c-3.413333 3.413333-10.24 6.826667-17.066667 6.826667h-3.413333c-17.066667 0-27.306667-10.24-27.306667-27.306667V116.053333C34.133333 71.68 71.68 34.133333 116.053333 34.133333h788.48C952.32 34.133333 989.866667 71.68 989.866667 116.053333V955.733333c0 6.826667-3.413333 13.653333-6.826667 17.066667-3.413333 3.413333-10.24 6.826667-17.066667 6.826667-13.653333 0-27.306667-10.24-27.306666-27.306667V116.053333c0-17.066667-13.653333-30.72-30.72-30.72H119.466667c-17.066667 0-30.72 13.653333-30.72 30.72v788.48l71.68-64.853333c3.413333-3.413333 10.24-6.826667 17.066666-6.826667s13.653333 3.413333 17.066667 6.826667l95.573333 88.746667 95.573334-88.746667c3.413333-3.413333 10.24-6.826667 17.066666-6.826667s13.653333 3.413333 17.066667 6.826667l95.573333 88.746667 95.573334-88.746667c3.413333-3.413333 10.24-6.826667 17.066666-6.826667s13.653333 3.413333 17.066667 6.826667l109.226667 102.4c3.413333 3.413333 6.826667 10.24 6.826666 17.066667s-3.413333 13.653333-6.826666 20.48c3.413333 6.826667-3.413333 10.24-10.24 10.24z m-58.026667-215.04c-13.653333 0-27.306667-10.24-27.306667-27.306667V682.666667h-85.333333c-13.653333 0-27.306667-10.24-27.306667-27.306667 0-13.653333 10.24-27.306667 27.306667-27.306667h85.333333v-40.96h-85.333333c-13.653333 0-27.306667-10.24-27.306667-27.306666 0-13.653333 10.24-27.306667 27.306667-27.306667h61.44L539.306667 443.733333c-3.413333-3.413333-6.826667-10.24-6.826667-17.066666s3.413333-13.653333 6.826667-17.066667c3.413333-3.413333 10.24-6.826667 17.066666-6.826667s13.653333 3.413333 17.066667 6.826667l109.226667 109.226667 109.226666-109.226667c3.413333-3.413333 10.24-6.826667 17.066667-6.826667s13.653333 3.413333 17.066667 6.826667c3.413333 3.413333 6.826667 10.24 6.826666 17.066667s-3.413333 13.653333-6.826666 17.066666l-95.573334 95.573334h61.44c13.653333 0 27.306667 10.24 27.306667 27.306666 0 13.653333-10.24 27.306667-27.306667 27.306667h-85.333333v40.96h85.333333c13.653333 0 27.306667 10.24 27.306667 27.306667 0 13.653333-10.24 27.306667-27.306667 27.306666h-85.333333v64.853334c3.413333 6.826667-6.826667 20.48-20.48 20.48zM180.906667 341.333333c-13.653333 0-27.306667-10.24-27.306667-27.306666 0-13.653333 10.24-27.306667 27.306667-27.306667h286.72c13.653333 0 27.306667 10.24 27.306666 27.306667 0 13.653333-10.24 27.306667-27.306666 27.306666H180.906667z m0-116.053333c-13.653333 0-27.306667-10.24-27.306667-27.306667 3.413333-13.653333 13.653333-27.306667 27.306667-27.306666h453.973333c13.653333 0 27.306667 10.24 27.306667 27.306666 0 13.653333-10.24 27.306667-27.306667 27.306667H180.906667z m0 0" /></svg>
