<?xml version="1.0" standalone="no"?><!DOCTYPE svg PUBLIC "-//W3C//DTD SVG 1.1//EN" "http://www.w3.org/Graphics/SVG/1.1/DTD/svg11.dtd"><svg class="icon" width="28px" height="28.00px" viewBox="0 0 1024 1024" version="1.1" xmlns="http://www.w3.org/2000/svg"><path d="M778.9 403.2c0-12.3-10.2-22.5-21.8-22.5H222.6c-11.6 0-21.8 10.2-21.8 22.5s10.2 22.5 21.8 22.5h534.5c11.6 0 21.8-10.2 21.8-22.5z m0 0M511.3 939.9H66.7c-12.3 0-21.8-9.4-21.8-22.5v-850C45 55.1 54.4 45 67.4 45H913c12.3 0 22.5 10.2 22.5 22.5v451.8c0 12.3 10.2 22.5 22.5 22.5s22.5-10.2 22.5-22.5V67.4c0-37-29.7-67.4-66.7-67.4H66.7C29.7 0 0 29.7 0 66.7v850.7c0 37 29.7 66.7 66.7 66.7h444.6c12.3 0 22.5-10.2 22.5-22.5s-10.2-21.7-22.5-21.7z m0 0M757.1 201.6H222.6c-11.6 0-21.8 10.2-21.8 22.5s10.2 22.5 21.8 22.5h534.5c11.6 0 21.8-10.2 21.8-22.5s-9.4-22.5-21.8-22.5zM223.4 559.9c-12.3 0-22.5 10.2-22.5 22.5s10.2 22.5 22.5 22.5h221.2c12.3 0 22.5-10.2 22.5-22.5s-10.2-22.5-22.5-22.5H223.4zM768 509.1c-142.1 0-256 114.6-256 257.4 0 142.9 113.9 257.5 256 257.5s256-114.6 256-257.5c0-142.8-113.9-257.4-256-257.4z m0 39.9c39.9 0 79.8 11.6 113.9 34.1h-17.4L768 743.3 671.5 583h-17.4c34.1-16.6 74-34 113.9-34z m0 429.3c-119.7 0-216.1-97.2-216.1-217.6 0-63.1 28.3-125.5 74-160.3l102.3 160.3h-79.8v39.9h96.5v28.3h-96.5v39.9h96.5v63.1h45.7v-63.1h96.5v-39.9h-96.5v-28.3h96.5v-39.9h-79.8l102.2-160.3c45.7 39.9 74 97.2 74 160.3-5.2 125.5-96.6 217.6-215.5 217.6z m0 0" /></svg>
