<?xml version="1.0" standalone="no"?><!DOCTYPE svg PUBLIC "-//W3C//DTD SVG 1.1//EN" "http://www.w3.org/Graphics/SVG/1.1/DTD/svg11.dtd"><svg class="icon" width="28px" height="28.00px" viewBox="0 0 1024 1024" version="1.1" xmlns="http://www.w3.org/2000/svg"><path d="M955.110197 945.186404c0 57.674601-17.929278 77.609952-76.845137 77.609952H145.722402c-60.182192 0-76.845137-16.650407-76.845137-77.359193V212.631208c0-53.787834 14.60672-76.318542 76.845137-76.318543h81.973161c38.679596 0 38.16554 46.102067 0 46.102067H140.594378c-21.314526 0-25.615046 9.215398-25.615046 23.822118v744.077578c0 15.622294 6.143599 26.129102 25.615046 26.129102h742.798707c16.650407 0 25.615046-10.243511 25.615045-26.129102m0-91.464394V206.23685c0-20.750318-6.657655-23.822118-25.865805-23.822118h-81.709863c-38.416299 0-38.16554-46.102067 0-46.102067h76.845136c62.238417 0 76.845137 15.622294 76.845137 75.052209v647.598002m-76.857675 163.83348"  /><path d="M535.038495 887.561955c0 17.415222-8.964639 26.329709-22.568322 26.329709s-23.571359-9.904986-23.571358-26.329709v-123.46126h-122.395534c-11.522382 0-23.044764-11.284161-23.044764-23.057302 0-11.284161 10.030365-23.057302 23.044764-23.057302H488.898815v-92.204134H315.285728c-15.108238 0-28.172789-11.008326-28.172788-26.129102 0-11.284161 10.030365-22.568322 28.172788-22.568322h172.898423L354.216084 433.938682c-7.936527-13.064551-5.128024-29.45166 7.936526-37.902244 11.53492-8.71388 28.686845-4.864727 37.400725 6.657655l107.575669 117.305123A5.566853 5.566853 0 0 0 511.467137 522.832795a6.858262 6.858262 0 0 0 4.350671-2.821041l107.826427-117.305123c8.71388-11.53492 25.865805-15.108238 38.165541-6.406895s15.873053 24.85023 7.171711 37.902243L535.289255 577.122147h173.149182c16.13635 0 25.615046 12.537957 25.615045 22.568322 0 13.31531-7.171711 26.129102-25.615045 26.129102H535.038495v92.204134H656.907435c16.387109 0 23.057302 11.53492 23.057302 23.057302 0 11.785679-7.171711 23.057302-23.057302 23.057302h-121.86894z m184.934862-743.826819c-9.227936-27.144676-19.722206-46.39044-71.717113-49.424626h-22.279949a15.609756 15.609756 0 0 1-15.108237-11.785679c-3.335096-12.287198-7.171711-27.157214-9.227937-34.842982-5.89284-22.794005-33.551572-47.644235-67.880497-47.644235h-43.795083c-33.300813 0-60.959545 24.586933-67.366441 47.380938-1.792928 6.143599-5.89284 23.057302-8.964639 34.842982a15.923205 15.923205 0 0 1-15.622294 12.036438h-29.965717c-34.328925 1.792928-54.30189 16.387109-64.031345 49.424626-2.82104 9.478695-6.406896 25.615046-11.020864 44.05838l-2.306984 9.741992c-4.350671 17.164463-3.335096 36.886669 7.435009 50.465276 11.020864 14.080125 30.993829 20.236262 48.158291 20.236262h1.542169c14.343422-0.250759 226.673719 0 303.518856 0h27.144676c16.650407 0 36.360074-5.89284 47.130179-19.722206 10.757567-13.578607 11.785679-33.300813 7.435009-50.716035z m-36.623372 82.474679H339.358605c-11.008326 0-17.415222-6.920952-15.108238-15.873053 0 0 12.287198-54.815947 14.594182-64.031345 2.306984-6.920952 11.53492-12.036438 15.622294-12.036439l44.309139-2.507591c24.586933 0 44.309139-14.080125 49.951219-35.3445 0 0 17.164463-49.424625 17.415222-50.151827 2.82104-6.406896 6.920952-6.657655 15.885591-6.657655h59.680674c8.199824 0 13.327848 1.792928 15.371535 7.685768 0.514056 1.253796 15.622294 37.902243 19.471447 49.437163 7.42247 21.778431 25.615046 35.106279 47.894995 35.106279l38.16554 2.507591c14.080125 0 20.487021 3.335096 23.308061 12.036439l14.343423 64.031344c2.043687 11.284161-4.350671 15.873053-16.901166 15.873054z m0 0"  /></svg>
