<?xml version="1.0" standalone="no"?><!DOCTYPE svg PUBLIC "-//W3C//DTD SVG 1.1//EN" "http://www.w3.org/Graphics/SVG/1.1/DTD/svg11.dtd"><svg class="icon" width="28px" height="27.97px" viewBox="0 0 1025 1024" version="1.1" xmlns="http://www.w3.org/2000/svg"><path d="M1019.712126 956.970542c-11.280302 33.840906-33.711794 55.74236-68.884592 64.107452-3.316137 0.795057-6.503162 1.855134-9.819299 2.786099 27.072725 0 54.281357 0 81.48999 0.142702v-74.721808c-0.930965 2.507489-1.861929 5.028568-2.786099 7.685555zM1019.447107 956.970542c0.930965-2.52108 1.855134-5.178066 2.786099-7.699146V169.65982c-2.786099-7.29822-5.178066-14.868254-8.494204-21.901454-13.407251-28.139597-36.497893-44.197039-66.227605-51.101127-5.708105-1.195984-11.545321-1.461003-17.389333-1.461003-28.268709-0.265019-56.537418-0.135907-84.806126-0.135907h-8.086482v-18.714429c0-15.133273-0.672741-30.25975 0.265019-45.393023 0.930965-13.536362-3.581156-23.090642-16.322461-28.404616h-13.529567c-14.997365 5.307178-18.048483 16.852499-17.661148 31.190715 0.530038 20.039525 0.142703 40.214956 0.142703 60.784519H235.737927v-9.160149c0-17.389333-0.400926-34.907778 0.135908-52.290316 0.400926-14.066401-3.187025-25.346703-17.654353-30.524769H204.68312c-6.102236 3.581156-13.67227 5.572197-14.997366 14.202308-0.400926 2.391968-1.060077 4.77714-1.060076 7.169108v71.133856H98.777392c-29.199674 0-54.016338 10.349337-73.396712 32.386699-11.681228 13.271343-19.645394 28.934654-21.500528 46.983138 0 0.665946-0.795057 1.325096-1.325096 1.991041v847.429296H940.756807c3.316137-0.930965 6.503162-1.991041 9.819299-2.779304 35.023299-8.215593 57.583903-30.117047 68.871001-64.093861zM90.391915 143.783079c4.247102-0.265019 8.358296-1.195984 12.605397-1.195984h85.737092v7.563239c0 21.765547 0.135907 43.401982-0.135908 65.167528-0.265019 15.133273 16.193349 22.295585 26.012649 20.569563 16.193349-2.922006 20.970489-11.545321 21.235508-26.678594 0.400926-21.901454 0.135907-43.796113 0.135907-66.227605h554.386075v12.605398c0 18.979448-0.142703 38.088008 0 57.067456 0 9.160149 5.830421 18.048483 12.999529 20.834582 10.750264 4.247102 20.834582 3.581156 28.798747-5.042159 2.928801-3.316137 5.042159-8.630111 5.178066-13.142231 0.530038-24.021607 0.265019-47.914102 0.26502-72.336636 2.126949-0.265019 3.846175-0.530038 5.572197-0.530039 28.526933-0.135907 57.060661-0.665946 85.607979 0.135908 21.64323 0.665946 38.081213 11.015283 45.399818 33.711794 1.195984 3.717063 2.126949 7.699146 2.126949 11.681229 0.265019 45.257116 0.135907 90.514231 0.135907 135.771346 0 0.795057-0.135907 1.726022-0.265019 3.051118H49.918734v-7.563239c0-42.606924 0.400926-85.077941-0.135907-127.678069-0.271815-20.42686 15.255589-46.038582 40.609088-47.764605z m838.140034 832.69695c-276.992574 0.135907-553.971558 0.135907-830.970927 0-27.473651 0-47.649083-21.235508-47.649083-47.513176V383.081777v-8.229185c309.107458 0 617.419859 0 926.534113 0.135908v7.563238c0 181.959427 0 363.918854-0.135907 545.885076 0 27.602763-20.440451 48.043214-47.778196 48.043215zM395.490109 642.617064c0 66.050925-6.93127 148.804852-72.9754 207.523581 5.708105 3.6627 16.302075 13.855745 20.386088 19.570645 39.956733-35.471793 60.342821-81.544352 70.529069-128.031429h199.369147v85.628366c0 8.568952-3.254979 11.823931-12.231653 11.823931-9.771732 0.407722-42.396268 0.815444-76.638101-0.421313 4.077218 7.760304 9.370805 20.386088 11.41621 28.540524 43.626229 0 70.114552-0.407722 85.207052-5.300383 14.677983-4.892661 20.386088-13.855745 20.386088-34.65635v-307.816339h-245.4485v123.138767z m27.317358-96.623262h189.991546v71.337717H422.807467v-71.337717z m0 97.037779h189.991546v72.159957H418.329323c3.254979-25.278749 4.478144-49.742055 4.478144-72.159957z" /></svg>
