<?xml version="1.0" standalone="no"?><!DOCTYPE svg PUBLIC "-//W3C//DTD SVG 1.1//EN" "http://www.w3.org/Graphics/SVG/1.1/DTD/svg11.dtd"><svg class="icon" width="28px" height="28.00px" viewBox="0 0 1024 1024" version="1.1" xmlns="http://www.w3.org/2000/svg"><path d="M223.403008 746.235904l275.163136 0 0 55.031808-275.163136 0 0-55.031808ZM223.403008 553.62048l275.163136 0 0 55.033856-275.163136 0 0-55.033856ZM223.403008 388.523008l275.163136 0 0 55.032832-275.163136 0 0-55.032832ZM223.403008 195.908608l275.163136 0 0 55.032832-275.163136 0 0-55.032832ZM938.8288 3.294208 85.82144 3.294208c-45.519872 0-82.548736 37.028864-82.548736 82.54976l0 853.00736c0 45.519872 37.028864 82.54976 82.548736 82.54976l853.00736 0c45.520896 0 82.54976-37.029888 82.54976-82.54976L1021.37856 85.842944C1021.37856 40.323072 984.349696 3.294208 938.8288 3.294208zM966.345728 938.850304c0 15.181824-12.33408 27.515904-27.516928 27.515904L85.82144 966.366208c-15.181824 0-27.515904-12.33408-27.515904-27.515904L58.305536 85.842944c0-15.168512 12.33408-27.516928 27.515904-27.516928l853.00736 0c15.182848 0 27.516928 12.347392 27.516928 27.516928L966.345728 938.850304zM801.246208 663.686144C801.166336 665.622528 802.214912 661.618688 801.246208 663.686144L801.246208 663.686144zM636.148736 663.686144C635.181056 661.455872 636.094464 666.24 636.148736 663.686144L636.148736 663.686144zM801.246208 278.457344c0.32256-25.111552-16.902144-41.745408-27.515904-55.032832-10.479616-13.140992-36.947968-22.102016-56.457216-21.792768-17.19808 0.2816-42.940416 9.015296-53.608448 21.792768-16.688128 19.991552-27.301888 47.038464-27.516928 55.032832-0.349184 11.25888 0 385.2288 0 385.2288 8.895488 20.530176 71.908352 126.0544 72.28416 126.994432 1.907712 4.784128 5.83168 7.820288 10.131456 7.820288 3.117056 0.027648 6.045696-1.477632 8.22272-4.110336 0.88576-1.021952 1.611776-2.203648 2.256896-3.57376 0.403456-0.96768 64.948224-111.464448 72.203264-127.1296C801.650688 647.268352 802.132992 303.823872 801.246208 278.457344zM746.2144 663.686144c-6.58432 14.564352-15.853568 55.919616-27.516928 82.54976-11.313152-28.1344-20.851712-66.721792-27.515904-82.54976 1.101824-41.595904-0.321536-374.842368 0-385.2288-0.188416-9.136128 0.026624-3.828736 0-27.516928 11.179008 0 17.492992 0.14848 27.515904 0 11.958272-0.201728 20.637696 0 27.516928 0 0.188416 11.83744 0.188416 11.83744 0 27.516928C746.025984 292.16256 746.348544 470.293504 746.2144 663.686144z" /></svg>
