<?xml version="1.0" standalone="no"?><!DOCTYPE svg PUBLIC "-//W3C//DTD SVG 1.1//EN" "http://www.w3.org/Graphics/SVG/1.1/DTD/svg11.dtd"><svg class="icon" width="28px" height="27.41px" viewBox="0 0 1046 1024" version="1.1" xmlns="http://www.w3.org/2000/svg"><path d="M796.526848 478.655091c2.514 16.512997 16.756997 28.307995 32.935994 28.307995a33.019995 33.019995 0 0 0 5.118999-0.379c18.225997-2.804 30.732995-19.849997 27.929996-38.054994-44.286993-288.441952-302.88495-301.99495-305.489949-302.10595-17.913997-0.957-33.936994 13.597998-34.671995 32.023995-0.734 18.426997 13.619998 33.960994 32.023995 34.694994 2.07 0.09 206.099966 10.859998 242.15296 245.51296z m74.543987-318.386948C643.806873-66.839819 436.415908 12.853168 427.692909 16.369167c-17.091997 6.876999-25.392996 26.327996-18.515997 43.419993 6.898999 17.112997 26.304996 25.413996 43.417993 18.514997 1.736-0.69 174.899971-67.097989 371.273938 129.164979 180.88497 180.79697 127.784979 364.37494 125.492979 371.963938-5.496999 17.602997 4.272999 36.340994 21.853997 41.859993a33.213994 33.213994 0 0 0 9.991998 1.514c14.220998 0 27.395995-9.124998 31.868995-23.389997 2.893-9.257998 68.543989-228.731962-142.005977-439.149927z m-78.173987 786.29787c-3.204999 3.204999-13.663998 10.659998-41.971993 10.659998-91.755985 0-267.589956-77.089987-436.857927-246.312959C91.832965 488.633089 41.292973 269.203125 78.413967 232.105131c23.989996-24.011996 73.884988-73.951988 121.06398-73.951987 26.104996 0 50.851992 15.021998 75.621987 45.911992 71.391988 88.950985 40.479993 119.46198-10.749998 170.001972l-9.523998 9.435998c-12.840998 12.818998-19.628997 29.731995-19.628997 48.937992-0.022 30.666995 14.799998 86.236986 142.985976 214.311965 128.207979 128.141979 183.755969 142.962976 214.399965 142.962976h0.023c19.138997 0 36.029994-6.742999 48.869992-19.539997l9.413998-9.501998c27.862995-28.240995 51.942991-52.653991 82.386986-52.653992 23.589996 0 53.099991 14.086998 87.682986 41.859994 29.464995 23.701996 44.441993 47.201992 45.754992 71.949988 2.649 48.358992-48.981992 99.944983-73.817988 124.735979z m69.879989-248.716959c-47.402992-38.099994-89.775985-56.592991-129.499979-56.59299-58.37399 0-96.384984 38.544994-129.921978 72.549987l-10.771998 9.145999c-10.258998 0-52.609991-8.879999-167.197973-123.42398C291.656932 465.890093 302.02793 430.772098 302.02793 430.705098l9.212998-9.123998c52.765991-52.053991 125.047979-123.35698 15.933998-259.287957-37.743994-47.023992-80.716987-70.902988-127.696979-70.902988-74.819988 0-135.640977 60.84399-168.288972 93.490984-96.539984 96.606984 44.776993 382.311937 235.675961 573.233905 183.68997 183.64397 375.456938 265.874956 484.059919 265.874956 39.167993 0 69.189989-10.192998 89.195986-30.199995 31.645995-31.644995 97.519984-97.451984 93.268984-175.587971-2.381-44.129993-26.149996-84.633986-70.613988-120.35298" /></svg>
