<?xml version="1.0" standalone="no"?><!DOCTYPE svg PUBLIC "-//W3C//DTD SVG 1.1//EN" "http://www.w3.org/Graphics/SVG/1.1/DTD/svg11.dtd"><svg class="icon" width="28px" height="28.00px" viewBox="0 0 1024 1024" version="1.1" xmlns="http://www.w3.org/2000/svg"><path d="M960 704c0-131.65-99.38-240.07-227.21-254.38A254.75 254.75 0 0 0 768 320c0-141.38-114.62-256-256-256S256 178.62 256 320a255.76 255.76 0 0 0 116 214.32C193.13 593.12 64 761.48 64 960h64a383.61 383.61 0 0 1 353.58-382.82A254.82 254.82 0 0 0 448 704c0 141.38 114.62 256 256 256a255.23 255.23 0 0 0 184.08-78.11A385.81 385.81 0 0 1 896 960h64a447.31 447.31 0 0 0-24.54-146.53A255 255 0 0 0 960 704zM512 512a192 192 0 1 1 137.69-58.21 255.19 255.19 0 0 0-113.26 56.67A195.07 195.07 0 0 1 512 512z m320 320H576a32 32 0 0 1 0-64h256a32 32 0 0 1 0 64z m0-96H576a32 32 0 0 1 0-64h256a32 32 0 0 1 0 64z m0-96H576a32 32 0 0 1 0-64h256a32 32 0 0 1 0 64z" /></svg>
