<?xml version="1.0" standalone="no"?><!DOCTYPE svg PUBLIC "-//W3C//DTD SVG 1.1//EN" "http://www.w3.org/Graphics/SVG/1.1/DTD/svg11.dtd"><svg class="icon" width="28px" height="28.00px" viewBox="0 0 1024 1024" version="1.1" xmlns="http://www.w3.org/2000/svg"><path d="M123.525032 70.62069 582.681865 70.62069C572.817602 70.62069 564.965517 62.688486 564.965517 53.085678L564.965517 953.37931 123.525032 953.37931C133.389294 953.37931 141.241379 961.311514 141.241379 970.914322L141.241379 53.085678C141.241379 62.615729 133.35296 70.62069 123.525032 70.62069ZM70.62069 970.914322C70.62069 1000.154659 94.225178 1024 123.525032 1024L635.586207 1024 635.586207 53.085678C635.586207 23.845341 611.981718 0 582.681865 0L123.525032 0C94.116511 0 70.62069 23.84294 70.62069 53.085678L70.62069 970.914322ZM423.805387 264.827586C443.306761 264.827586 459.115732 249.018598 459.115732 229.517241 459.115732 210.015885 443.306761 194.206897 423.805387 194.206897L282.40151 194.206897C262.900136 194.206897 247.091165 210.015885 247.091165 229.517241 247.091165 249.018598 262.900136 264.827586 282.40151 264.827586L423.805387 264.827586ZM282.40151 382.528742C262.900136 382.528742 247.091165 398.337713 247.091165 417.839086 247.091165 437.340442 262.900136 453.149431 282.40151 453.149431L441.37931 453.149431C460.880666 453.149431 476.689655 437.340442 476.689655 417.839086 476.689655 398.337713 460.880666 382.528742 441.37931 382.528742L282.40151 382.528742ZM423.805387 641.471258C443.306761 641.471258 459.115732 625.662287 459.115732 606.160914 459.115732 586.659558 443.306761 570.850569 423.805387 570.850569L282.40151 570.850569C262.900136 570.850569 247.091165 586.659558 247.091165 606.160914 247.091165 625.662287 262.900136 641.471258 282.40151 641.471258L423.805387 641.471258ZM282.40151 759.172414C262.900136 759.172414 247.091165 774.981402 247.091165 794.482759 247.091165 813.984115 262.900136 829.793103 282.40151 829.793103L441.37931 829.793103C460.880666 829.793103 476.689655 813.984115 476.689655 794.482759 476.689655 774.981402 460.880666 759.172414 441.37931 759.172414L282.40151 759.172414ZM635.469647 317.793103 900.530353 317.793103C890.620787 317.793103 882.758621 309.822482 882.758621 300.292855L882.758621 970.879559C882.758621 961.332648 890.591744 953.37931 900.530353 953.37931L635.586207 953.37931 635.586207 1024 900.530353 1024C929.837268 1024 953.37931 1000.096644 953.37931 970.879559L953.37931 300.292855C953.37931 271.034668 929.841717 247.172414 900.530353 247.172414L635.469647 247.172414 635.469647 317.793103ZM794.645575 670.896552C814.146948 670.896552 829.955919 655.087563 829.955919 635.586207 829.955919 616.084851 814.146948 600.275862 794.645575 600.275862L723.699253 600.275862C704.197879 600.275862 688.388908 616.084851 688.388908 635.586207 688.388908 655.087563 704.197879 670.896552 723.699253 670.896552L794.645575 670.896552ZM723.699253 776.827586C704.197879 776.827586 688.388908 792.636575 688.388908 812.137931 688.388908 831.639287 704.197879 847.448276 723.699253 847.448276L812.137931 847.448276C831.639287 847.448276 847.448276 831.639287 847.448276 812.137931 847.448276 792.636575 831.639287 776.827586 812.137931 776.827586L723.699253 776.827586ZM723.699253 423.724138C704.197879 423.724138 688.388908 439.533127 688.388908 459.034483 688.388908 478.535839 704.197879 494.344828 723.699253 494.344828L812.137931 494.344828C831.639287 494.344828 847.448276 478.535839 847.448276 459.034483 847.448276 439.533127 831.639287 423.724138 812.137931 423.724138L723.699253 423.724138Z" /></svg>
