<?xml version="1.0" standalone="no"?><!DOCTYPE svg PUBLIC "-//W3C//DTD SVG 1.1//EN" "http://www.w3.org/Graphics/SVG/1.1/DTD/svg11.dtd"><svg class="icon" width="28px" height="28.00px" viewBox="0 0 1024 1024" version="1.1" xmlns="http://www.w3.org/2000/svg"><path d="M909 959H662a30 30 0 0 1 0-60h223a14 14 0 0 0 14-14V662h0.05a29.966 29.966 0 0 1 59.9 0h0.05v247a50 50 0 0 1-50 50z m20-567a30 30 0 0 1-30-30V139a14 14 0 0 0-14-14H662a30 30 0 0 1 0-60h247a50 50 0 0 1 50 50v247a30 30 0 0 1-30 30zM362 124.95v0.05H139a14 14 0 0 0-14 14v223a30 30 0 0 1-60 0V115a50 50 0 0 1 50-50h247v0.05a29.965 29.965 0 0 1 0 59.9zM95 633a29.979 29.979 0 0 1 29.95 29h0.05v223a14 14 0 0 0 14 14h223v0.05a29.966 29.966 0 0 1 0 59.9v0.05H115a50 50 0 0 1-50-50V662h0.05A29.978 29.978 0 0 1 95 633z m542.257-285a49.88 49.88 0 0 1 16.24-32.111c0.052-0.047 0.106-0.09 0.158-0.137 0.556-0.5 1.122-0.987 1.7-1.46 0.212-0.174 0.431-0.337 0.645-0.507 0.422-0.334 0.845-0.669 1.278-0.99 0.286-0.211 0.578-0.411 0.867-0.616 0.374-0.265 0.746-0.531 1.128-0.786 0.318-0.212 0.641-0.413 0.963-0.617 0.367-0.234 0.734-0.469 1.107-0.693 0.322-0.192 0.648-0.374 0.972-0.559 0.39-0.221 0.78-0.444 1.176-0.655 0.3-0.161 0.608-0.313 0.913-0.468 0.433-0.219 0.866-0.438 1.306-0.646 0.266-0.125 0.534-0.242 0.8-0.362 0.49-0.22 0.981-0.437 1.478-0.642 0.219-0.09 0.439-0.173 0.658-0.259 0.552-0.218 1.106-0.43 1.667-0.629 0.167-0.059 0.336-0.113 0.5-0.171 0.612-0.209 1.227-0.41 1.849-0.6 0.121-0.036 0.242-0.068 0.363-0.1a49.795 49.795 0 0 1 2.007-0.542l0.25-0.058c0.7-0.169 1.414-0.326 2.129-0.465l0.173-0.031c0.734-0.14 1.472-0.267 2.216-0.374l0.117-0.015a49.563 49.563 0 0 1 14.156 0l0.117 0.015c0.744 0.107 1.482 0.234 2.216 0.374l0.173 0.031c0.715 0.139 1.424 0.3 2.129 0.465l0.25 0.058c0.675 0.166 1.343 0.349 2.007 0.542 0.121 0.035 0.242 0.067 0.363 0.1a43.79 43.79 0 0 1 1.849 0.6c0.168 0.058 0.337 0.112 0.5 0.171 0.561 0.2 1.115 0.411 1.667 0.629 0.219 0.086 0.439 0.169 0.658 0.259 0.5 0.205 0.988 0.422 1.478 0.642 0.267 0.12 0.535 0.237 0.8 0.362 0.44 0.208 0.873 0.427 1.307 0.646 0.3 0.155 0.61 0.307 0.912 0.468 0.4 0.211 0.786 0.434 1.176 0.655 0.324 0.185 0.65 0.367 0.972 0.559 0.374 0.224 0.74 0.459 1.107 0.693 0.322 0.2 0.645 0.4 0.963 0.617 0.382 0.255 0.754 0.521 1.128 0.786 0.289 0.205 0.581 0.405 0.867 0.616 0.433 0.321 0.856 0.656 1.278 0.99 0.214 0.17 0.433 0.333 0.645 0.507 0.578 0.473 1.144 0.962 1.7 1.46 0.052 0.047 0.106 0.09 0.158 0.137q1 0.906 1.956 1.864l98.891 98.892A49.844 49.844 0 0 1 836 452H212a30 30 0 0 1 0-60h425v-44h0.257zM377.5 708.111c-0.052 0.047-0.106 0.09-0.158 0.137-0.556 0.5-1.122 0.987-1.7 1.46-0.212 0.174-0.431 0.337-0.645 0.507-0.422 0.334-0.845 0.669-1.278 0.99-0.286 0.211-0.578 0.411-0.867 0.616-0.374 0.265-0.746 0.531-1.128 0.786-0.318 0.212-0.641 0.413-0.963 0.617-0.367 0.234-0.733 0.469-1.107 0.693-0.322 0.192-0.648 0.374-0.972 0.559-0.39 0.221-0.78 0.444-1.176 0.655-0.3 0.161-0.608 0.313-0.913 0.468-0.433 0.219-0.866 0.438-1.306 0.646-0.266 0.125-0.534 0.242-0.8 0.362-0.49 0.22-0.981 0.437-1.478 0.642-0.219 0.09-0.439 0.173-0.658 0.259-0.552 0.218-1.106 0.43-1.667 0.629-0.167 0.059-0.336 0.113-0.5 0.171-0.612 0.209-1.227 0.41-1.849 0.6-0.121 0.036-0.242 0.068-0.363 0.1-0.664 0.193-1.332 0.376-2.007 0.542l-0.25 0.058a50.35 50.35 0 0 1-2.129 0.465l-0.173 0.031c-0.734 0.14-1.472 0.267-2.216 0.374l-0.117 0.015a49.563 49.563 0 0 1-14.156 0l-0.117-0.015a49.226 49.226 0 0 1-2.216-0.374l-0.173-0.031c-0.715-0.139-1.424-0.3-2.129-0.465l-0.25-0.058a49.795 49.795 0 0 1-2.007-0.542c-0.121-0.035-0.242-0.067-0.363-0.1a43.79 43.79 0 0 1-1.849-0.6c-0.168-0.058-0.337-0.112-0.5-0.171-0.561-0.2-1.115-0.411-1.667-0.629-0.219-0.086-0.439-0.169-0.658-0.259-0.5-0.205-0.988-0.422-1.478-0.642-0.267-0.12-0.535-0.237-0.8-0.362-0.44-0.208-0.873-0.427-1.306-0.646-0.305-0.155-0.611-0.307-0.913-0.468-0.4-0.211-0.786-0.434-1.176-0.655-0.324-0.185-0.65-0.367-0.972-0.559-0.374-0.224-0.74-0.459-1.107-0.693-0.322-0.2-0.645-0.405-0.963-0.617-0.382-0.255-0.754-0.521-1.128-0.786-0.289-0.205-0.581-0.4-0.867-0.616-0.433-0.321-0.856-0.656-1.278-0.99-0.214-0.17-0.433-0.333-0.645-0.507a50.274 50.274 0 0 1-1.7-1.46c-0.052-0.047-0.106-0.09-0.158-0.137q-1-0.906-1.956-1.864l-98.898-98.892A49.844 49.844 0 0 1 195.005 572H819a30 30 0 0 1 0 60H394v44h-0.257a49.88 49.88 0 0 1-16.243 32.111z"  /></svg>
