<?xml version="1.0" standalone="no"?><!DOCTYPE svg PUBLIC "-//W3C//DTD SVG 1.1//EN" "http://www.w3.org/Graphics/SVG/1.1/DTD/svg11.dtd"><svg class="icon" width="28px" height="27.81px" viewBox="0 0 1031 1024" version="1.1" xmlns="http://www.w3.org/2000/svg"><path d="M1011.415972 406.144598 871.271818 285.288264 871.271818 96.289731c-73.211862-89.144803-128.568873 5.143352-128.568873 5.143352l0 69.427789L596.129849 43.574601c-86.067754-86.570637-168.428111 0-168.428111 0S145.70263 289.122128 50.988268 370.149098c-109.21035 93.428772-9.002111 139.497874-9.002111 139.497874l102.911859 50.350084 1.234803 175.2972-87.429024 79.704536c-61.717241 90.011157 16.711663 163.287746 16.711663 163.287746 110.569629 110.579587 214.713304-14.135506 214.713304-14.135506l534.857863 0c45.000599-6.432925 52.713138-65.574009 52.713138-65.574009l3.858759-330.428277 123.4305-57.856491C1058.985758 460.149301 1011.415972 406.144598 1011.415972 406.144598zM787.160829 116.106326l43.467054 0 0 130.696916-43.467054-44.348344L787.160829 116.106326zM231.662836 950.308295c0 0-50.786248 61.067974-111.856214 0 0 0-50.143952-45.005578 0-100.287903l244.285838-244.285838c0 0-21.790288-207.640074 178.712825-198.909818l3.858759 36.911644-71.998967 68.140208 89.998211 95.146542 82.288659-74.581099 35.993509 7.717518c0 0 16.784357 199.276276-208.280379 173.569472L231.662836 950.308295zM954.914777 481.574127l-123.42552 55.289296-8.997132 322.715738c-2.574166 61.710271-39.857247 62.994864-39.857247 62.994864L341.63498 922.574024l150.426876-150.431855c309.190663 3.02228 232.737443-268.392377 232.737443-268.392377l-95.249111-11.810292-60.111998 55.697577-31.417767-34.101472 58.53862-55.212618-10.879211-103.735393c-299.767324-30.15309-281.329925 228.565004-281.329925 228.565004l-108.002434 106.71087 1.286585-168.431099-96.431136-43.711027c-55.282325-23.144588-6.427946-70.717361-6.427946-70.717361L444.489083 95.861533c70.896607-68.143196 136.286391-2.569187 136.286391-2.569187l374.139304 338.140816C998.634766 461.005696 954.914777 481.574127 954.914777 481.574127z" /></svg>
