<?xml version="1.0" standalone="no"?><!DOCTYPE svg PUBLIC "-//W3C//DTD SVG 1.1//EN" "http://www.w3.org/Graphics/SVG/1.1/DTD/svg11.dtd"><svg class="icon" width="28px" height="28.00px" viewBox="0 0 1024 1024" version="1.1" xmlns="http://www.w3.org/2000/svg"><path  d="M734.870588 566.211765c132.517647-12.047059 240.941176-120.470588 240.941177-259.011765 0-24.094118-6.023529-48.188235-12.047059-72.282353 0-12.047059-12.047059-18.070588-18.070588-18.070588-12.047059 0-18.070588 0-30.117647 6.023529l-48.188236 48.188236c-30.117647 30.117647-84.329412 30.117647-120.470588 0-30.117647-30.117647-30.117647-84.329412 0-120.470589l48.188235-48.188235c6.023529-6.023529 12.047059-18.070588 6.02353-30.117647 0 0-6.023529-12.047059-18.070588-12.047059-24.094118-6.023529-48.188235-12.047059-72.282353-12.047059-144.564706 0-259.011765 114.447059-259.011765 259.011765 0 12.047059 0 30.117647 6.023529 42.164706l-36.141176 36.141176-162.635294-168.658823c18.070588-30.117647 12.047059-72.282353-18.070589-96.376471L180.705882 60.235294c-12.047059-12.047059-30.117647-12.047059-42.164706 0L60.235294 138.541176c-12.047059 12.047059-12.047059 30.117647 0 42.164706l60.235294 60.235294c18.070588 18.070588 36.141176 24.094118 60.235294 24.094118 12.047059 0 24.094118 0 36.141177-6.023529L379.482353 421.647059l-277.082353 259.011765c-30.117647 30.117647-48.188235 78.305882-48.188235 120.470588 0 48.188235 18.070588 90.352941 48.188235 120.470588s78.305882 48.188235 120.470588 48.188235c48.188235 0 90.352941-18.070588 120.470588-54.211764L542.117647 704.752941l234.917647 234.917647c24.094118 24.094118 48.188235 36.141176 84.329412 36.141177 30.117647 0 60.235294-12.047059 84.329412-36.141177 24.094118-24.094118 36.141176-48.188235 36.141176-84.329412 0-30.117647-12.047059-60.235294-36.141176-84.329411l-210.82353-204.8zM198.776471 198.776471c-12.047059 12.047059-30.117647 12.047059-42.164706 0L120.470588 162.635294l42.164706-42.164706 42.164706 42.164706c6.023529 6.023529 6.023529 24.094118-6.023529 36.141177z m108.423529 680.658823c-42.164706 42.164706-120.470588 42.164706-162.635294 0-24.094118-24.094118-36.141176-48.188235-36.141177-84.329412s12.047059-60.235294 30.117647-78.305882l367.435295-337.317647c6.023529-42.164706 6.023529-54.211765 6.023529-72.282353 0-114.447059 90.352941-204.8 204.8-204.8l-12.047059 12.047059c-54.211765 54.211765-54.211765 144.564706 0 198.77647 24.094118 24.094118 60.235294 42.164706 102.4 42.164706 36.141176 0 72.282353-12.047059 102.4-42.164706l12.047059-12.047058c0 114.447059-90.352941 204.8-198.776471 204.8-12.047059 0-30.117647 0-48.188235-6.02353h-6.023529-6.02353-6.023529l-349.364706 379.482353z m590.305882 18.070588c-24.094118 24.094118-60.235294 24.094118-84.329411 0l-222.870589-222.870588 84.329412-84.329412 222.870588 222.870589c12.047059 12.047059 18.070588 24.094118 18.070589 42.164705 0 18.070588-6.023529 30.117647-18.070589 42.164706zM222.870588 740.894118c-30.117647 0-60.235294 24.094118-60.235294 60.235294 0 30.117647 24.094118 60.235294 60.235294 60.235294 30.117647 0 60.235294-24.094118 60.235294-60.235294 0-30.117647-30.117647-60.235294-60.235294-60.235294z" /></svg>
