<?xml version="1.0" standalone="no"?><!DOCTYPE svg PUBLIC "-//W3C//DTD SVG 1.1//EN" "http://www.w3.org/Graphics/SVG/1.1/DTD/svg11.dtd"><svg class="icon" width="28px" height="28.00px" viewBox="0 0 1024 1024" version="1.1" xmlns="http://www.w3.org/2000/svg"><path d="M432.889 655.404l-73.547-101.758c-9.744-13.481-25.541-13.48-35.285 0L188.472 741.24c-9.744 13.481-3.93 24.41 12.985 24.41h621.202c16.925 0 22.609-10.905 12.77-24.357L620.563 447.52c-9.903-13.54-25.79-13.451-35.628 0L432.89 655.404zM273.271 347.874a58.4 58.4 0 1 0 119.365 0 58.4 58.4 0 1 0-119.365 0zM109.082 198.668h805.836c-8.385 0-14.983-6.677-14.983-14.867v656.398c0-8.207 6.63-14.867 14.983-14.867H109.082c8.385 0 14.983 6.677 14.983 14.867V183.801c0 8.207-6.63 14.867-14.983 14.867zM64.383 840.2c0 24.613 19.963 44.815 44.699 44.815h805.836c24.668 0 44.699-20.12 44.699-44.815V183.801c0-24.613-19.963-44.815-44.699-44.815H109.082c-24.668 0-44.699 20.12-44.699 44.815v656.398z" /></svg>
