<?xml version="1.0" standalone="no"?><!DOCTYPE svg PUBLIC "-//W3C//DTD SVG 1.1//EN" "http://www.w3.org/Graphics/SVG/1.1/DTD/svg11.dtd"><svg class="icon" width="28px" height="28.00px" viewBox="0 0 1024 1024" version="1.1" xmlns="http://www.w3.org/2000/svg"><path d="M514.56 936.448c-6.656 0-13.312-2.56-17.92-7.68L355.84 788.48H35.84c-14.336 0-25.6-11.264-25.6-25.6V112.64c0-14.336 11.264-25.6 25.6-25.6h957.44c14.336 0 25.6 11.264 25.6 25.6v650.24c0 14.336-11.264 25.6-25.6 25.6h-320L532.48 928.768c-4.608 5.12-11.264 7.68-17.92 7.68zM61.44 737.28h305.152c6.656 0 13.312 2.56 17.92 7.68l130.048 130.048 130.048-130.048c4.608-4.608 11.264-7.68 17.92-7.68H967.68V138.24H61.44v599.04z"  /><path d="M263.68 458.24m-53.76 0a53.76 53.76 0 1 0 107.52 0 53.76 53.76 0 1 0-107.52 0Z"  /><path d="M514.56 458.24m-53.76 0a53.76 53.76 0 1 0 107.52 0 53.76 53.76 0 1 0-107.52 0Z"  /><path d="M770.56 458.24m-53.76 0a53.76 53.76 0 1 0 107.52 0 53.76 53.76 0 1 0-107.52 0Z"  /></svg>
