<?xml version="1.0" standalone="no"?><!DOCTYPE svg PUBLIC "-//W3C//DTD SVG 1.1//EN" "http://www.w3.org/Graphics/SVG/1.1/DTD/svg11.dtd"><svg t="1540951575156" class="icon" style="" viewBox="0 0 1024 1024" version="1.1" xmlns="http://www.w3.org/2000/svg" p-id="23598" xmlns:xlink="http://www.w3.org/1999/xlink" width="28" height="28"><defs><style type="text/css"></style></defs><path d="M602.352941 123.482353v90.352941c183.717647 15.058824 331.294118 171.670588 331.294118 358.4 0 198.776471-162.635294 361.411765-361.411765 361.411765-189.741176 0-343.341176-147.576471-358.4-331.294118h-90.352941c15.058824 234.917647 210.823529 421.647059 448.752941 421.647059 249.976471 0 451.764706-201.788235 451.764706-451.764706 0-237.929412-186.729412-433.694118-421.647059-448.752941z" p-id="23599"></path><path d="M0 602.352941h602.352941V0C271.058824 0 0 271.058824 0 602.352941z m512-90.352941H99.388235C135.529412 301.176471 301.176471 135.529412 512 99.388235V512z" p-id="23600"></path></svg>
