<?xml version="1.0" standalone="no"?><!DOCTYPE svg PUBLIC "-//W3C//DTD SVG 1.1//EN" "http://www.w3.org/Graphics/SVG/1.1/DTD/svg11.dtd"><svg class="icon" width="28px" height="27.57px" viewBox="0 0 1040 1024" version="1.1" xmlns="http://www.w3.org/2000/svg"><path d="M476.469332 1023.938564C364.675719 1023.938564 0 1010.274104 0 834.248825c0-97.565986 163.773854-152.571966 329.063136-173.542227v-42.995181c-108.824191-92.697158-120.548287-215.83089-122.719037-324.798432C206.33898 111.99328 317.052337 0 495.299562 0c189.889407 0 286.16523 98.32882 286.16523 292.257665 0 90.587845-40.675959 167.147731-82.375857 237.753414l-41.00874 75.361879v88.688438c0 20.202308-18.384817 36.529008-41.126492 36.529009s-41.126492-16.3267-41.126493-36.529009v-97.018179c0-5.478071 1.397676-10.956143 4.121353-15.922244l45.693258-83.942484c39.068376-66.187389 73.580225-130.843989 73.580226-204.890106 0-153.631742-60.960182-219.199648-203.917365-219.199648-186.597444 0-206.712717 153.309201-206.712718 219.199648 2.508649 124.050157 21.512949 214.781353 108.537488 281.700858 9.010659 6.906466 14.191788 17.022979 14.191789 27.615623v91.319961c0 18.625442-15.794252 34.260984-36.641642 36.303741-174.924545 16.99226-292.431734 68.015119-292.431734 105.020259 0 85.580785 235.746495 116.626602 394.216347 116.626602 80.15903 0 215.713137-16.618523 217.074976-16.761874 22.454973-2.918225 43.266524 11.176289 46.384417 31.158451 3.133252 19.977041-12.589325 38.428414-35.080136 41.203287-5.759654 0.696278-142.511769 17.463272-228.379257 17.463273z m551.314121-229.792293c-16.434214-14.601364-43.077095-14.601364-59.511309 0l-51.83689 46.031158v-282.760634c0-20.637482-18.84047-37.373758-42.083875-37.373758-23.238286 0-42.083875 16.736276-42.073636 37.368638v282.781113l-51.842009-46.041397c-8.222227-7.305802-18.99406-10.956143-29.760774-10.956143-10.766714 0-21.543667 3.650341-29.750535 10.956143-16.439334 14.591125-16.439334 38.249225 0 52.850589l123.671299 109.83789c16.429094 14.596244 43.077095 14.596244 59.51131 0l123.671299-109.83789c16.444453-14.601364 16.444453-38.259464 0.00512-52.855709z m0 0"  /></svg>
