<?xml version="1.0" standalone="no"?><!DOCTYPE svg PUBLIC "-//W3C//DTD SVG 1.1//EN" "http://www.w3.org/Graphics/SVG/1.1/DTD/svg11.dtd"><svg class="icon" width="28px" height="28.00px" viewBox="0 0 1024 1024" version="1.1" xmlns="http://www.w3.org/2000/svg"><path d="M987.136 215.04c-17.408-21.504-47.104-24.576-75.776-24.576H208.896l-10.24-71.68c-5.632-43.008-25.6-47.104-71.68-47.104H52.736C31.232 71.68 25.6 93.184 25.6 105.984s8.704 31.232 30.208 31.232h38.4c28.672 0 39.936 17.408 44.544 38.4L220.16 725.504c5.632 43.008 43.008 70.144 87.552 70.144h559.616c18.432 0 32.768-8.704 32.768-30.208s-14.336-32.768-32.768-32.768H323.072c-23.04 0-38.4-14.336-41.472-35.84l-7.168-48.64H814.08c41.472 0 75.776-23.04 86.016-59.904l94.208-309.248c7.168-25.6 4.608-47.104-7.168-64z m-67.072 95.744l-75.776 248.832c-4.096 18.432-21.504 25.6-43.008 25.6H264.704L220.16 253.44h658.432c15.872 0 37.376 1.536 45.568 11.264 6.144 11.776-1.024 33.28-4.096 46.08zM413.696 888.832c0 35.84-28.672 64.512-62.976 64.512s-62.976-28.672-62.976-64.512S315.904 824.32 350.72 824.32c34.304 1.536 62.976 30.208 62.976 64.512z m401.92 0c0 35.84-28.672 64.512-62.976 64.512s-62.976-28.672-62.976-64.512S718.336 824.32 752.64 824.32c34.304 1.536 62.976 30.208 62.976 64.512z" /></svg>
