<?xml version="1.0" standalone="no"?><!DOCTYPE svg PUBLIC "-//W3C//DTD SVG 1.1//EN" "http://www.w3.org/Graphics/SVG/1.1/DTD/svg11.dtd"><svg class="icon" width="28px" height="27.84px" viewBox="0 0 1030 1024" version="1.1" xmlns="http://www.w3.org/2000/svg"><path d="M874.053 286.065c0-150.706-122.615-273.321-273.321-273.321s-273.322 122.614-273.322 273.321c0 98.205 52.239 184.225 130.215 232.419-124.398 44.317-223.716 144.435-264.688 276.537-12.74 41.051-19.194 83.846-19.194 127.221 0 18.528 15.012 33.538 33.538 33.538s33.538-15.012 33.538-33.538c0-36.628 5.447-72.743 16.179-107.353 47.218-152.234 186.145-254.522 345.693-254.522 3.37 0 6.556-0.645 9.623-1.57 145.316-6.137 261.734-125.938 261.734-272.733zM600.733 492.309c-113.728 0-206.244-92.515-206.244-206.244s92.515-206.244 206.244-206.244 206.244 92.515 206.244 206.244-92.515 206.244-206.244 206.244zM1004.965 812.269l-5.055-15.678c-24.783-78.432-69.719-147.07-129.952-198.492-14.095-12.032-35.253-10.383-47.284 3.722-12.031 14.084-10.361 35.253 3.723 47.284 50.669 43.266 88.553 101.26 109.557 167.705l5.23 16.223c10.535 32.337 21.42 65.779 21.42 96.293 0 18.528 15.012 33.538 33.538 33.538s33.538-15.012 33.538-33.538c0.001-41.158-13.133-81.488-24.717-117.057zM377.636 535.303c2.773-3.463 5.114-7.318 6.361-11.869 4.891-17.86-5.622-36.311-23.483-41.214-83.923-22.992-142.528-99.906-142.528-187.028 0-67.317 34.117-128.828 91.271-164.561 15.71-9.826 20.481-30.515 10.667-46.214-9.826-15.732-30.515-20.46-46.214-10.667-76.894 48.071-122.802 130.848-122.802 221.442 0 85.68 42.246 163.882 109.018 211.94-112.317 45.43-201.799 140.084-238.356 257.929-12.129 39.106-18.287 79.884-18.287 121.196 0 18.528 15.012 33.538 33.538 33.538s33.538-15.012 33.538-33.538c0-34.565 5.142-68.65 15.274-101.325 37.905-122.21 143.872-214.683 269.937-235.579 9.333-1.551 17.083-6.839 22.069-14.05z" /></svg>
