<?xml version="1.0" standalone="no"?><!DOCTYPE svg PUBLIC "-//W3C//DTD SVG 1.1//EN" "http://www.w3.org/Graphics/SVG/1.1/DTD/svg11.dtd"><svg class="icon" width="28px" height="28.00px" viewBox="0 0 1024 1024" version="1.1" xmlns="http://www.w3.org/2000/svg"><path d="M 599.4 535.4 c -6.5 -2.5 -13 -4.9 -19.6 -7.1 C 647.1 487 692 412.7 692 328 c 0 -129.8 -105.2 -235.1 -235.1 -235.1 s -235 105.2 -235 235.1 c 0 84.8 44.9 159.1 112.2 200.4 C 179.8 579.1 67.7 722.7 64 893.1 h 64 c 1.1 -41.4 9.7 -81.5 25.7 -119.3 c 16.6 -39.2 40.3 -74.4 70.5 -104.6 c 30.2 -30.2 65.4 -54 104.6 -70.5 c 40.5 -17.1 83.6 -25.8 128.1 -25.8 c 32.6 0 64.4 4.7 95 13.9 c 13.4 -19.3 29.4 -36.6 47.5 -51.4 Z M 456.9 499 c -45.7 0 -88.6 -17.8 -120.9 -50.1 c -32.3 -32.3 -50.1 -75.3 -50.1 -120.9 s 17.8 -88.7 50.1 -121 s 75.3 -50.1 120.9 -50.1 c 45.7 0 88.6 17.8 120.9 50.1 c 32.4 32.3 50.2 75.3 50.2 121 s -17.8 88.6 -50.1 120.9 c -32.3 32.3 -75.3 50.1 -121 50.1 Z M 756.9 546.5 c -103.3 0 -187 83.7 -187 187 s 83.7 187 187 187 s 187 -83.7 187 -187 s -83.7 -187 -187 -187 Z m 87 274 c -23.2 23.2 -54.1 36 -87 36 s -63.7 -12.8 -87 -36 c -23.2 -23.2 -36 -54.1 -36 -87 s 12.8 -63.7 36 -87 c 23.2 -23.2 54.1 -36 87 -36 s 63.7 12.8 87 36 c 23.2 23.2 36 54.1 36 87 s -12.8 63.8 -36 87 Z"  /><path d="M 780.9 643.5 h -48 v 66 h -66 v 48 h 66 v 66 h 48 v -66 h 66 v -48 h -66 Z"  /></svg>
