<?xml version="1.0" standalone="no"?><!DOCTYPE svg PUBLIC "-//W3C//DTD SVG 1.1//EN" "http://www.w3.org/Graphics/SVG/1.1/DTD/svg11.dtd"><svg class="icon" width="28px" height="28.00px" viewBox="0 0 1024 1024" version="1.1" xmlns="http://www.w3.org/2000/svg"><path d="M80.636017 479.622592l361.851305-332.651262 212.604142 204.220195L854.423325 122.847909 783.032368 47.317679l191.948707-0.024559-0.064468 191.93438-67.921949-67.986417L655.091464 450.431759l-212.847689-211.909317L127.064442 532.977777 80.636017 479.622592zM143.295102 619.319238l64.084551 0 0 323.364759-64.084551 0 0-323.364759ZM399.17998 435.124122l64.084551 0 0 507.559874-64.084551 0 0-507.559874ZM654.948201 559.967478l64.084551 0 0 382.716518-64.084551 0 0-382.716518ZM910.774751 367.585913l64.084551 0 0 575.098083-64.084551 0 0-575.098083Z" /></svg>
