<?xml version="1.0" standalone="no"?><!DOCTYPE svg PUBLIC "-//W3C//DTD SVG 1.1//EN" "http://www.w3.org/Graphics/SVG/1.1/DTD/svg11.dtd"><svg class="icon" width="28px" height="28.00px" viewBox="0 0 1024 1024" version="1.1" xmlns="http://www.w3.org/2000/svg"><path d="M512.004093 64.301492c-247.25636 0-447.699532 200.444195-447.699532 447.696462 0 247.2625 200.443172 447.699532 447.699532 447.699532 247.25329 0 447.693392-200.437032 447.693392-447.699532C959.696462 264.745686 759.25636 64.301492 512.004093 64.301492zM512.004093 895.722428c-211.926714 0-383.724475-171.796738-383.724475-383.723451 0-211.916481 171.797761-383.714242 383.724475-383.714242 211.920574 0 383.714242 171.797761 383.714242 383.714242C895.717312 723.92569 723.923644 895.722428 512.004093 895.722428zM512.004093 192.250582l0 319.747371 319.751465 0C831.754534 335.404979 688.593997 192.250582 512.004093 192.250582z" /></svg>
