<?xml version="1.0" standalone="no"?><!DOCTYPE svg PUBLIC "-//W3C//DTD SVG 1.1//EN" "http://www.w3.org/Graphics/SVG/1.1/DTD/svg11.dtd"><svg class="icon" width="28px" height="28.00px" viewBox="0 0 1024 1024" version="1.1" xmlns="http://www.w3.org/2000/svg"><path d="M926.39 436.62a137.15 137.15 0 0 0-62.87-43.85l-66.67-160.5c-16.78-40.4-56.85-70.87-93.15-70.87H320c-18 0-37.7 7.66-55.34 21.58a125.36 125.36 0 0 0-37.8 49.29l-66.68 160.44a136 136 0 0 0-93 129.07v248.46h126.19v31.92a80.08 80.08 0 1 0 160.17 0v-31.92h316.54v31.92a80.08 80.08 0 1 0 160.17 0v-31.92h126.18V521.79a136.29 136.29 0 0 0-30.04-85.17z m-18 285.61H782.25v79.92a32.2 32.2 0 0 1-32.08 32.25 31.83 31.83 0 0 1-32.08-32.25v-79.91H305.54v79.92a32.2 32.2 0 0 1-32.08 32.25 31.82 31.82 0 0 1-32.08-32.25v-79.92h-126.2V521.79a87.06 87.06 0 0 1 19.42-55.19 88.41 88.41 0 0 1 48.78-30.6l12.86-3 4.39-12.45c0.19-0.53 0.4-1.08 0.63-1.63l69.9-168.27C281 227.06 305 209.4 320 209.4h383.7c18.13 0 40.72 21.79 48.82 41.28L822.42 419c0.22 0.54 0.43 1.09 0.63 1.63l4.37 12.37 12.84 3A88.65 88.65 0 0 1 889 466.72a86.94 86.94 0 0 1 19.43 55.07zM273.45 469.86a94.1 94.1 0 1 0 94.1 94.1 94.21 94.21 0 0 0-94.1-94.1z m0 140.21a46.1 46.1 0 1 1 46.1-46.1 46.16 46.16 0 0 1-46.1 46.1zM750.16 469.86a94.1 94.1 0 1 0 94.1 94.1 94.21 94.21 0 0 0-94.1-94.1z m0 140.21a46.1 46.1 0 1 1 46.1-46.1 46.16 46.16 0 0 1-46.1 46.1zM302 415.6h426.27a24 24 0 0 0 22.64-32l-33.69-95.77c-10-28.49-38.3-47.63-70.37-47.63H380a77.11 77.11 0 0 0-43.7 13.32 69.91 69.91 0 0 0-27.36 36.33l-29.84 94.47A24 24 0 0 0 302 415.6z m52.7-111.24c3-9.49 13.39-16.11 25.28-16.11h266.86c11.55 0 21.87 6.4 25.09 15.56l22.45 63.8H334.72z" /></svg>
