<?xml version="1.0" standalone="no"?><!DOCTYPE svg PUBLIC "-//W3C//DTD SVG 1.1//EN" "http://www.w3.org/Graphics/SVG/1.1/DTD/svg11.dtd"><svg class="icon" width="28px" height="28.00px" viewBox="0 0 1024 1024" version="1.1" xmlns="http://www.w3.org/2000/svg"><path d="M796.877 569.902c-36.693 0-71.374 8.76-102.079 24.281-5.483-11.709-17.432-19.861-31.241-19.861H547.071v-59.846h116.485c18.972 0 34.444-15.306 34.444-34.223 0-18.954-15.473-34.426-34.444-34.426H555.949L676.764 324.94c6.446-6.521 10.075-15.067 10.075-24.296 0-9.007-3.629-17.701-10.075-24.222-6.042-5.986-14.884-9.412-24.296-9.412-9.376 0-18.272 3.426-24.203 9.357L512.608 391.895 397.449 276.422c-5.986-5.986-14.846-9.412-24.277-9.412-9.468 0-18.401 3.463-24.369 9.357-6.539 6.576-10.131 15.27-10.131 24.277 0 9.229 3.592 17.775 10.057 24.296l121.109 120.888H361.954c-18.898 0-34.242 15.472-34.242 34.426 0 18.917 15.344 34.223 34.242 34.223h116.614v59.846H361.954c-18.898 0-34.242 15.381-34.242 34.242 0 18.953 15.344 34.389 34.242 34.389h116.614v70.363c0 18.99 15.362 34.445 34.132 34.445 18.972 0 34.371-15.455 34.371-34.445v-70.363h83.135c-37.446 40.504-60.368 94.625-60.368 154.008C569.838 922.158 671.68 1024 796.877 1024c125.198 0 227.059-101.842 227.059-227.039 0-125.199-101.861-227.059-227.059-227.059z m0 397.512c-93.995 0-170.454-76.459-170.454-170.453 0-93.996 76.459-170.475 170.454-170.475 93.996 0 170.474 76.479 170.474 170.475 0 93.994-76.478 170.453-170.474 170.453zM511.724 957.025c-245.662 0-445.514-199.852-445.514-445.495 0-245.662 199.852-445.515 445.514-445.515 245.644 0 445.496 199.853 445.496 445.515 0 18.226 14.772 33.007 33.008 33.007s33.008-14.781 33.008-33.007C1023.235 229.471 793.765 0 511.724 0 229.665 0 0.193 229.471 0.193 511.53c0 282.04 229.471 511.511 511.53 511.511 18.227 0 33.008-14.771 33.008-33.008 0-18.234-14.781-33.008-33.007-33.008zM863.335 724.111c-9.633-8.252-22.361-12.379-38.165-12.379h-85.614v188.764h25.787V821.07h59.827c17.186 0 31.276-5.838 42.291-17.535 8.934-11.678 13.41-24.756 13.41-39.195 0-17.186-5.857-30.596-17.536-40.229z m-47.448 74.268h-50.544v-66.016h51.575c25.438 0.699 38.165 11.346 38.165 31.977 0 22.691-13.077 34.039-39.196 34.039z" /></svg>
