<?xml version="1.0" standalone="no"?><!DOCTYPE svg PUBLIC "-//W3C//DTD SVG 1.1//EN" "http://www.w3.org/Graphics/SVG/1.1/DTD/svg11.dtd"><svg class="icon" width="28px" height="28.00px" viewBox="0 0 1024 1024" version="1.1" xmlns="http://www.w3.org/2000/svg"><path d="M535.38357 140.108015c3.246951 4.882194 8.123005 13.018501 14.740726 26.140357 7.576559 15.023158 13.251815 28.354791 13.302981 28.475542l10.577916 24.959461 27.108405 0 103.868649 0c31.758308 0 51.507094 12.974499 62.151525 40.832987l0.029676 0.078795 0.030699 0.078795 73.532737 190.104709 8.792247 22.731724 24.174586 3.101641c9.934257 1.27504 45.040822 19.329231 45.02138 62.374606l0 200.926172-41.784662 0-40.932248 0 0 40.932248 0 60.21543c0 9.616008-2.891863 16.440437-9.100262 21.478174-6.686283 5.425569-16.750499 8.53642-27.612894 8.53642-11.000542 0-21.25714-3.181459-28.139897-8.727779-6.312776-5.087878-9.252735-11.851932-9.252735-21.286816l0-60.21543 0-40.932248-40.932248 0L303.083853 739.912803l-40.932248 0 0 40.932248 0 60.21543c0 9.437953-2.938935 16.202007-9.250688 21.288862-6.880711 5.545296-17.137309 8.725732-28.14092 8.725732-10.859325 0-20.921495-3.111874-27.608801-8.538467-6.210445-5.03876-9.102309-11.863189-9.102309-21.476127l0-60.21543 0-40.932248-40.932248 0-41.796942 0 0-200.926172c0-43.045375 35.117822-61.10059 45.054125-62.373583l24.175609-3.097548 8.795317-22.730701 73.562413-190.104709 0.036839-0.095167 0.035816-0.095167c10.613732-27.839045 30.330796-40.805358 62.050218-40.805358l105.07922 0 27.092032-0.013303 10.588149-24.930809c0.056282-0.13303 5.732561-13.464663 13.311167-28.486798 6.620791-13.124925 11.499915-21.263279 14.746866-26.143427L535.38357 140.110061M550.07313 99.175767l-74.903967 0c-17.326621 0-51.058886 79.57536-51.058886 79.57536L319.03208 178.751127c-56.498782 0-86.493933 30.949896-100.29731 67.155493l-73.562413 190.104709c-29.17139 3.738138-80.782861 38.032198-80.782861 102.974279l0 241.85842 82.72919 0 0 60.21543c0 47.433312 38.765909 70.946842 77.643358 70.946842 39.105646 0 78.323856-23.786753 78.323856-70.946842l0-60.21543 417.876296 0 0 60.21543c0 47.154973 39.223327 70.946842 78.32488 70.946842 38.882566 0 77.644381-23.508413 77.644381-70.946842l0-60.21543 82.71691 0 0-241.85842c0.029676-64.942081-51.608402-99.236142-80.744999-102.974279l-73.532737-190.104709c-13.833053-36.205597-43.807738-67.155493-100.387361-67.155493L601.113597 178.751127C601.113597 178.750103 567.387471 99.175767 550.07313 99.175767L550.07313 99.175767zM694.500521 293.368584c0.654916 1.364067 1.532913 3.462868 2.563382 6.587022l0.267083 0.809435 0.299829 0.797156 31.850405 84.58342L294.558689 386.145617l31.840172-84.587514 0.300852-0.799202 0.267083-0.810459c1.029446-3.123131 1.905396-5.218862 2.557242-6.579859L694.500521 293.368584M696.471408 252.436336l-368.830253 0c-23.088858 0.240477-32.959669 14.699794-39.550785 34.701336l-52.676733 139.940193 553.218774 0-52.696176-139.940193C729.34205 267.13613 719.446679 252.676813 696.471408 252.436336L696.471408 252.436336zM244.462734 665.116283c-46.284139 0-83.939761-38.561247-83.939761-85.957721 0-47.429219 37.654598-86.015026 83.939761-86.015026 46.267766 0 83.909062 38.585807 83.909062 86.015026C328.371796 626.555036 290.730501 665.116283 244.462734 665.116283zM244.462734 534.075785c-23.714098 0-43.007513 20.224624-43.007513 45.082778 0 24.827455 19.293415 45.025473 43.007513 45.025473 23.697725 0 42.976814-20.198018 42.976814-45.025473C287.439548 554.300408 268.160459 534.075785 244.462734 534.075785zM779.602757 665.116283c-46.267766 0-83.909062-38.561247-83.909062-85.957721 0-47.429219 37.641295-86.015026 83.909062-86.015026 46.288233 0 83.946924 38.585807 83.946924 86.015026C863.549681 626.555036 825.89099 665.116283 779.602757 665.116283zM779.602757 534.075785c-23.697725 0-42.976814 20.224624-42.976814 45.082778 0 24.827455 19.279089 45.025473 42.976814 45.025473 23.719214 0 43.014676-20.198018 43.014676-45.025473C822.617433 554.300408 803.320948 534.075785 779.602757 534.075785zM779.601734 634.417097" /></svg>
