<?xml version="1.0" standalone="no"?><!DOCTYPE svg PUBLIC "-//W3C//DTD SVG 1.1//EN" "http://www.w3.org/Graphics/SVG/1.1/DTD/svg11.dtd"><svg class="icon" width="28px" height="28.00px" viewBox="0 0 1024 1024" version="1.1" xmlns="http://www.w3.org/2000/svg"><path d="M249.856 690.861c-48.176 0-87.381-39.205-87.381-87.381s39.205-87.381 87.381-87.381 87.381 39.205 87.381 87.381-39.205 87.381-87.381 87.381zM249.856 574.353c-16.078 0-29.127 13.050-29.127 29.127s13.050 29.127 29.127 29.127 29.127-13.050 29.127-29.127-13.050-29.127-29.127-29.127z"  /><path d="M774.144 690.861c-48.176 0-87.381-39.205-87.381-87.381s39.205-87.381 87.381-87.381 87.381 39.205 87.381 87.381-39.205 87.381-87.381 87.381zM774.144 574.353c-16.078 0-29.127 13.050-29.127 29.127s13.050 29.127 29.127 29.127 29.127-13.050 29.127-29.127-13.050-29.127-29.127-29.127z"  /><path d="M917.333 452.426c-7.573-46.137-32.215-187.229-58.895-240.647-17.767-35.535-63.381-62.739-135.499-80.74-58.604-14.622-133.518-22.719-210.939-22.719s-152.335 8.039-210.939 22.719c-72.119 18.059-117.731 45.205-135.499 80.74-26.681 53.361-51.322 194.511-58.895 240.647-40.72 27.904-60.701 68.273-60.701 121.926v145.635c0 37.981 24.351 70.371 58.254 82.371v63.264c0 32.098 26.157 58.254 58.254 58.254h58.254c32.098 0 58.254-26.157 58.254-58.254v-58.254h466.034v58.254c0 32.098 26.157 58.254 58.254 58.254h58.254c32.098 0 58.254-26.157 58.254-58.254v-63.264c33.904-12 58.254-44.389 58.254-82.371v-145.635c0-53.652-19.982-94.022-60.701-121.926zM217.641 237.877c17.301-34.545 126.295-71.303 294.359-71.303s277.057 36.7 294.359 71.303c16.719 33.497 35.301 122.1 46.779 185.424-5.71-1.69-11.593-3.262-17.651-4.66-15.553-3.67-32.331-6.641-50.274-9.087l-168.879-120.993c-13.050-9.379-31.282-6.35-40.662 6.7s-6.35 31.282 6.7 40.662l91.226 65.361c-49.516-1.632-103.809-1.632-161.655-1.632-6.815 0-13.573 0-20.331 0l-167.423-111.615c-13.398-8.913-31.457-5.301-40.37 8.097s-5.301 31.457 8.097 40.37l95.771 63.846c-78.118 1.398-146.043 5.65-199.23 18.292-6.059 1.456-11.942 3.028-17.651 4.66 11.535-63.322 30.059-151.927 46.836-185.424zM220.729 865.624h-58.254v-58.254h58.254v58.254zM803.271 865.624v-58.254h58.254v58.254h-58.254zM919.779 719.989c0 16.078-13.050 29.127-29.127 29.127h-757.305c-16.078 0-29.127-13.050-29.127-29.127v-145.635c0-53.827 28.311-82.546 97.751-99.090 73.109-17.419 182.918-17.419 310.029-17.419s236.862 0 310.029 17.419c69.439 16.544 97.751 45.263 97.751 99.090v145.635z"  /></svg>
