<?xml version="1.0" standalone="no"?><!DOCTYPE svg PUBLIC "-//W3C//DTD SVG 1.1//EN" "http://www.w3.org/Graphics/SVG/1.1/DTD/svg11.dtd"><svg class="icon" width="28px" height="28.00px" viewBox="0 0 1024 1024" version="1.1" xmlns="http://www.w3.org/2000/svg"><path d="M231.4112 641.2416V1024H98.9568V0h291.392c110.8224 0 196.8 26.6624 257.9584 79.9872s91.7248 129.5744 91.7248 228.736c0 100.48-35.7632 181.9008-107.2896 244.2624s-160.9344 91.776-268.2112 88.256h-133.12z m0-524.8896v408.5376h122.5216c80.7936 0 142.1696-18.176 184.1152-54.5408 41.9456-36.3648 62.912-88.4736 62.912-156.3392 0-131.776-78.144-197.6576-234.4448-197.6576H231.4112zM925.0432 605.1328l-103.8336 191.1808h82.2016v42.1888h-96.5376v58.6752h96.5376v42.4576h-96.5376V1024h-52.736v-84.3648h-99.5072v-42.4576h99.5072v-58.6752h-99.5072v-42.1888h83.8272l-102.4896-191.1808h60.3008l71.6544 148.992c3.968 8.2944 8.4736 18.8416 13.5168 31.6416h1.088c3.6096-10.2784 8.2944-21.2736 14.0672-32.9856l71.9232-147.648h56.5248z" /></svg>
